<?xml version="1.0" standalone="no"?>
<!DOCTYPE svg PUBLIC "-//W3C//DTD SVG 1.1//EN" "http://www.w3.org/Graphics/SVG/1.1/DTD/svg11.dtd" >
<svg xmlns="http://www.w3.org/2000/svg">
<metadata></metadata>
<defs>
<font id="another_typewriterregular" horiz-adv-x="1255" >
<font-face units-per-em="2048" ascent="1638" descent="-410" />
<missing-glyph horiz-adv-x="1024" />
<glyph unicode="&#xd;" horiz-adv-x="2048" />
<glyph unicode=" "  horiz-adv-x="1024" />
<glyph unicode="&#x09;" horiz-adv-x="1024" />
<glyph unicode="&#xa0;" horiz-adv-x="1024" />
<glyph unicode="!" horiz-adv-x="403" d="M20 1364q0 -29 9.5 -49.5t15.5 -48.5q10 -51 18.5 -110.5t12.5 -113.5q8 -96 12 -187t12 -187q4 -45 30 -83t73 -38q29 0 41 9t32 32q16 47 24.5 97t11.5 102.5t5 105.5t7 102q8 82 25.5 163t29.5 163v27q0 16 -3 36.5t-11.5 38t-22.5 29.5t-35 12h-215 q-43 0 -57.5 -32.5t-14.5 -67.5zM51 186q0 -70 36 -125t114 -55q25 0 50 9.5t48 23.5q23 29 44.5 60.5t21.5 70.5q0 33 -12.5 65.5t-35 58t-52 41t-64.5 15.5q-74 0 -112 -49t-38 -115z" />
<glyph unicode="&#x22;" horiz-adv-x="886" d="M20 1294q0 -55 24 -85.5t53.5 -49t53 -32t23.5 -35.5q0 -37 -18.5 -69t-40 -61.5t-39 -59t-17.5 -66.5q0 -41 30 -53.5t65 -12.5q57 0 101 47t71.5 111.5t42 133t14.5 112.5q0 16 -5 52t-14.5 73.5t-23.5 69.5t-31 42q-10 6 -26.5 14.5t-31.5 15.5t-27 13l-11 6h-55 l-12 -6q-13 -6 -28.5 -13t-30.5 -15.5t-26 -14.5q-12 -6 -19 -20.5t-12 -32t-7.5 -34.5t-2.5 -30zM502 1319q0 -55 23.5 -86t53 -49.5t53 -31.5t23.5 -36q0 -37 -18.5 -68.5t-40 -61.5t-38.5 -60.5t-17 -67.5q0 -41 29.5 -53t64.5 -12q57 0 101 47t72 112.5t42 134t14 111.5 q0 16 -5 52t-14 74t-23.5 69.5t-30.5 42.5q-10 6 -25.5 13t-31 15.5t-27 13.5t-13.5 5h-6l-20 -5q-19 -5 -43.5 -13.5t-49 -15.5t-35 -13t-18.5 -21.5t-12 -33t-6 -35t-2 -27.5z" />
<glyph unicode="#" horiz-adv-x="1024" d="M74 518q0 -14 8 -24.5t24 -8.5h218l-115 -309q0 -2 -1 -6t-1 -8q-2 0 -2 -2q-2 -6 -3 -9.5t-1 -7.5q0 -16 8 -28.5t20 -12.5q2 0 5.5 -1t5.5 -1q6 0 13 1t13 1q14 6 26.5 17.5t16.5 30.5l131 335h281l-117 -323q0 -2 -1 -4t-1 -4v-4q-2 -2 -3 -6l-1 -3q0 -16 11.5 -25.5 t23.5 -13.5h14h19q14 4 26.5 12.5t14.5 20.5l131 350l264 -2q39 0 63.5 19.5t28.5 42.5v6q0 6 -2 12q-4 14 -18.5 26.5t-40.5 14.5h-252l102 291l236 -2q29 0 48 18.5t25 40.5v11v6q-2 14 -16 27.5t-43 15.5h-203l117 293q0 2 1 5t1 7q2 8 2 14v12q0 16 -8 24.5t-17 10.5 q-2 2 -8 2t-14 -2t-14 -4q-41 -16 -56 -45q-2 -2 -3 -5l-1 -3l-121 -309h-276l117 323v21q0 12 -8.5 20t-16.5 10q-2 2 -8 3q-8 0 -25 -5q-14 -6 -27.5 -15t-17.5 -19l-133 -338l-291 -2l-12 -4q-12 -6 -22.5 -21.5t-14.5 -32.5q-2 -6 -2 -14q0 -16 12.5 -30.5t38.5 -12.5 h246l-100 -291l-234 -2q-20 0 -34.5 -17.5t-20.5 -37.5q-4 -8 -5 -15.5t-1 -13.5zM485 604l105 291h276l-102 -291h-279z" />
<glyph unicode="$" horiz-adv-x="1116" d="M20 293q12 -6 24.5 -33t27 -57.5t31 -59t38.5 -41.5q4 -2 21.5 -4t21.5 -4t21.5 -20.5t21.5 -22.5q16 -12 38 -13t40 -11q8 -4 22.5 -17.5t14.5 -17.5v-250h139v231q18 4 26.5 11.5t24.5 7.5q6 0 14.5 -1t6.5 -14h78v-219q-10 -4 -10 -16h151q0 4 -1 17.5t-11 17.5v196 q0 8 22.5 16.5t51 17.5t55 20.5t35.5 23.5q2 2 4 13.5t4 13.5q10 8 30.5 12t28.5 12q10 10 25.5 43t31 68t29 63.5t19.5 32.5v232q-10 6 -17.5 22.5t-13.5 35.5t-11 36.5t-10 26.5q-4 4 -22 21t-21 22q-2 2 -5 13t-5 13q-10 20 -28.5 21.5t-30.5 21.5q-2 2 -4 12.5t-4 12.5 q-12 12 -27.5 17t-34 8t-36 6.5t-31.5 11.5q-10 6 -14.5 16t-5.5 21.5t-4 19.5t-11 12v422q10 4 13 15.5t3 19.5h23q18 0 26.5 -8t14.5 -18.5t13 -22.5t19 -21v-94q-23 -12 -34 -45t-11 -55q0 -8 4.5 -23.5t11.5 -30t17 -25.5t21 -11h129q4 0 23.5 20.5t27.5 32.5 q2 2 5 20.5t3 22.5q2 0 4 3t4 5v78q-2 0 -4 3t-4 5q-10 33 -31.5 73t-27.5 73l-70 69q-16 0 -20.5 3t-6.5 7.5t-6 10.5t-18 12q-4 2 -21.5 5t-21.5 5q-18 6 -34.5 18.5t-39.5 14.5v129l-20 18h-62l-20 -18v-76q-6 -2 -21.5 -10t-21.5 -8h-4l-9 8q0 2 -2 2h-2q-4 0 -6 -2 l-8 -8q-4 0 -14.5 -1t-14.5 -1q-47 0 -63.5 35.5t-9.5 78.5q-16 4 -24.5 11.5t-23.5 7.5q-16 0 -25 -8t-17.5 -17.5t-14.5 -17.5t-12 -10v-95q0 -2 -16.5 -11t-37 -20.5t-39 -19.5t-22.5 -10l-78 -76q-14 4 -20 -2t-9 -16t-3 -21q0 -10 -2 -12q-2 -4 -13.5 -14.5 t-13.5 -12.5q-6 -10 -9 -26.5t-7.5 -32.5t-7.5 -29.5t-9 -13.5v-182q2 -2 13.5 -19.5t23.5 -38t21.5 -39t9.5 -22.5l69 -74h78q2 -12 16.5 -17t26.5 -30q0 -8 8 -8v-559q-12 -4 -13 -13.5t-1 -19.5t-4 -17t-21 -7q-4 0 -12 2t-10 4l-68 67l-1 7q-1 8 -1 12q0 8 7.5 27.5 t17.5 39t20.5 34.5t16.5 17v62q-6 2 -11.5 21.5t-17.5 41t-37.5 40t-75.5 18.5q-4 0 -18 -4t-29.5 -10.5t-28 -12.5t-14.5 -8q-4 -6 -6 -19.5t-5 -26.5t-8 -24.5t-16 -15.5v-129zM193 1135v4q0 18 7 42.5t19 51.5t27.5 48.5t32.5 33.5q2 2 13 5t13 5q12 10 13 19.5t4.5 15.5 t13.5 9t37 3v-426q-10 -6 -11 -16q0 -8 -6 -19h-4q-27 0 -50 21.5t-42.5 47.5t-34 47.5t-20.5 21.5v77q-2 0 -6 3.5t-6 5.5zM485 121v387l9 8v78l-9 8v152q4 0 21.5 -2t21.5 -4q2 0 5.5 -5.5t3.5 -7.5h94v-598q0 -4 -13.5 -17.5t-21.5 -17.5l-12 -1q-13 -1 -17 -1t-15 1 t-15 1q0 2 -3.5 5.5l-5.5 5.5q-4 2 -21.5 4t-21.5 4zM485 889v358l13 8v129q6 0 20 3.5t19 13.5h94l16 -17v-489q0 -16 -14.5 -17t-22.5 -1h-18t-12 12h-95zM743 156v438l13 8v98q14 0 24.5 -3t20.5 -6t22.5 -7t30.5 -4q8 -41 36 -64.5t50 -56.5q2 -4 5 -21.5t3 -21.5l5 -5 t5 -3v-182q-4 -2 -14 -16.5t-21.5 -32t-21.5 -34t-12 -20.5q-12 -16 -24.5 -25.5t-26 -17.5t-26.5 -17t-26 -26h-14q-8 0 -18.5 2t-10.5 17z" />
<glyph unicode="%" horiz-adv-x="1359" d="M18 -117q0 -39 26 -53t60 -14q29 0 52.5 8t40.5 33q250 356 495.5 712.5t507.5 706.5q18 25 41 51.5t44.5 56t35.5 61.5t14 66q0 39 -15 67t-40 44t-57.5 23.5t-67.5 7.5h-59q-20 -6 -34.5 -17.5t-29 -26t-28 -28.5t-29.5 -25q-47 -33 -105.5 -50t-111.5 -38 q-39 -16 -75 -37.5t-77 -27.5q-6 0 -30.5 -1t-53 -3t-53.5 -3t-31 -1q-78 -6 -145.5 -50.5t-117.5 -110t-78.5 -143t-28.5 -149.5q0 -59 19 -111.5t54 -90.5t85 -60.5t112 -22.5q68 0 133.5 44t116.5 110t82.5 141.5t31.5 139.5q0 29 -4 58.5t-4 57.5q0 25 9.5 37t24.5 18.5 t33.5 9.5t37.5 9q25 8 66.5 31.5t85.5 48t81 44t51 19.5q0 -29 -13 -54t-32.5 -50t-41 -48.5t-38.5 -45.5q-37 -53 -70.5 -107.5t-72.5 -109.5q-2 -2 -9 -10.5t-15.5 -17.5t-15.5 -17.5t-9 -10.5q-2 -4 -9 -16t-15.5 -27.5t-14.5 -29t-8 -15.5q-68 -98 -142.5 -191 t-146.5 -186q-4 -4 -16.5 -23.5t-16.5 -25.5q-2 -2 -7 -13t-12 -25.5t-13.5 -27t-8.5 -14.5q-2 -4 -13 -15t-23.5 -24.5t-22.5 -25.5t-12 -14q-4 -4 -16.5 -28t-14.5 -28q-53 -74 -111.5 -145.5t-113.5 -142.5q-2 -4 -5.5 -9.5t-3.5 -7.5t-1 -15.5t-1 -21.5zM236 961 q0 43 17 87t48 78.5t71 56t87 21.5q10 0 25.5 -3t29.5 -10t24.5 -18.5t10.5 -25.5v-121q0 -14 -18.5 -42t-42 -55.5t-45 -49t-29.5 -21.5h-121q-16 0 -27.5 11.5t-17.5 27.5t-9 34t-3 30zM524 78q0 -27 11 -45q41 -94 102 -147.5t166 -53.5q35 0 76 11.5t78.5 32t70.5 48 t51 60.5q37 63 67 128.5t30 139.5q0 78 -33 140.5t-88 113.5q-33 10 -80 20.5t-84 10.5h-4q-8 -2 -24.5 -5.5t-34 -7.5t-33 -7t-21.5 -3q-41 -10 -66.5 -41t-54.5 -63q-2 -4 -14 -22.5t-16 -27.5q-4 -6 -12.5 -17t-17.5 -25.5t-17.5 -29t-10.5 -24.5l-39 -176l-1 -4t-1 -6z M700 137q0 29 4.5 52.5t14.5 52.5q12 14 30.5 35.5t39 42t45 36t49.5 15.5q37 0 68.5 -18.5t47.5 -55.5v-53q0 -37 -14 -76t-39.5 -72t-60.5 -53t-76 -20q-109 -1 -109 114z" />
<glyph unicode="&#x26;" horiz-adv-x="1271" d="M20 397q0 -96 46.5 -174t113.5 -137q14 -12 21.5 -20.5t13.5 -14.5t14.5 -10t24.5 -10q41 -16 92 -20.5t96 -4.5q72 0 125.5 28.5t110.5 67.5q18 12 31.5 39t35.5 27q2 0 6.5 -1t6.5 -1q51 -59 116.5 -101t143.5 -42q23 0 47.5 1t46.5 15q53 43 94 102.5t41 132.5 q0 37 -18.5 69t-59.5 32q-31 0 -48 -16.5t-30.5 -39t-26.5 -47t-34 -41.5q-4 -2 -19.5 -3t-19.5 -1q-14 0 -38.5 10.5t-49 27t-43 35.5t-22.5 36v51q0 14 5 48t15 75t23.5 84t32 79t40 58.5t45.5 22.5q25 0 38.5 -19.5t26.5 -42t31.5 -42t51.5 -19.5q47 0 58.5 28.5 t11.5 67.5q0 37 -15.5 78t-42 75.5t-63.5 57.5t-78 23q-27 0 -54.5 -11.5t-53 -29t-48 -39t-39.5 -41.5q-16 -18 -35.5 -63.5t-36 -91.5t-29.5 -82t-20 -36q-14 0 -35.5 30t-43 67.5t-37 72.5t-15.5 43q0 23 14.5 39.5t34 31.5t41 29.5t33.5 30.5q45 59 75 138t30 153 q0 33 -6.5 60.5t-18.5 58.5q-4 12 -12 30.5t-16.5 37t-13.5 31.5l-5 14l-33 32l-14 6q-14 5 -33.5 11t-40 12t-33.5 10q-23 8 -33 9.5t-34 1.5q-68 0 -114 -33t-75.5 -83t-43 -110.5t-13.5 -115.5v-70q0 -4 3 -17.5t7 -29t8.5 -29.5t6.5 -20q0 -2 5 -11.5t11 -20.5t11 -20.5 t5 -11.5t1 -14t1 -19q0 -4 -1 -15t-1 -15q-25 -29 -54.5 -47.5t-57.5 -40.5q-43 -33 -77 -79t-57.5 -98.5t-37 -109t-13.5 -109.5zM211 420q0 96 38 161.5t116 114.5q12 6 16 7.5t18 1.5q10 0 18.5 -2.5t12.5 -14.5q2 -6 10.5 -22.5t17.5 -35t16 -33.5t11 -22 q8 -16 34 -49.5t52.5 -71.5t47 -71t18.5 -47q0 -4 -5 -16.5t-9 -16.5q-37 -43 -79 -73.5t-102 -30.5q-90 0 -147 32.5t-82 118.5q0 8 -1 35t-1 35zM436 1184q0 23 4 46t14.5 41.5t29 31t46.5 12.5q25 0 42.5 -12.5t28.5 -31t16.5 -41t5.5 -42.5q0 -25 -9.5 -61.5t-27 -70.5 t-42 -57.5t-55.5 -23.5q-2 0 -9 1t-11 1q-23 45 -28 101.5t-5 105.5z" />
<glyph unicode="'" horiz-adv-x="1024" d="M240 1300q0 -6 2 -14l4 -16v-2t2 -2q0 -6 2 -10.5t2 -8.5q8 -33 26.5 -49t38.5 -22q6 0 11.5 -1t9.5 -1q10 0 16 2h11q6 0 13 3t9 -1q8 -29 15.5 -33t12.5 0t8 8t3 -8q0 -23 -16.5 -60.5t-42.5 -80.5q-12 -20 -28 -42t-30 -38v-2q-4 0 -4 -9q-2 -2 -2 -6v-2q0 -6 2 -8 q4 -14 16.5 -25.5t24.5 -13.5q6 -2 10 -2q6 0 19 4q10 6 20.5 14.5t16.5 18.5q25 27 51 76q12 20 23.5 43.5t21.5 48.5q27 63 35 113q4 16 4 30v31q0 76 -33 124t-72 66q-25 10 -45 11q-12 0 -30.5 -3t-36.5 -12q-35 -14 -62.5 -42.5t-27.5 -78.5z" />
<glyph unicode="(" horiz-adv-x="507" d="M20 639l105 -416q0 -2 12.5 -26.5t28.5 -58.5t33.5 -67.5t27.5 -54.5q12 -23 28.5 -49t37 -48.5t45 -38t53.5 -15.5q43 0 68.5 31.5t25.5 70.5q0 25 -11 48.5t-26.5 45t-32 42t-28.5 40.5q-25 45 -49.5 95.5t-44.5 97.5q-29 92 -45.5 163.5t-34.5 155.5v328q0 2 3 20.5 t8 42t10.5 46t9.5 34.5q6 16 19 59.5t28.5 92.5t29 92t19.5 60q25 59 62.5 115.5t64.5 115.5q0 4 1 14.5t1 14.5q0 37 -18.5 60.5t-57.5 23.5q-33 0 -66.5 -30t-66.5 -77t-62.5 -103.5t-53 -110.5t-42 -99t-26.5 -68q-14 -37 -20.5 -78t-10.5 -82t-8 -80.5t-17 -78.5v-328z " />
<glyph unicode=")" horiz-adv-x="493" d="M20 1702q0 -23 20.5 -58.5t48.5 -75.5t54.5 -80t36.5 -69q55 -141 84 -292.5t29 -305.5q0 -178 -53.5 -350t-139.5 -326q-29 -31 -50 -76.5t-21 -86.5q0 -35 20.5 -72t59.5 -37q27 0 51 17.5t45.5 42t38 52t24.5 48.5q6 14 22.5 53t34 82t34 82t22.5 55q4 6 9 25.5 t7 23.5q23 88 37.5 169t34.5 167v281q-18 72 -25.5 136t-29.5 136q-6 18 -21.5 61.5t-34 92.5t-35 92t-22.5 59q-14 25 -33.5 66t-42 80t-50.5 66.5t-58 27.5q-35 0 -66 -23.5t-31 -62.5z" />
<glyph unicode="," horiz-adv-x="403" d="M20 186q0 -55 24 -85.5t52.5 -49t52 -32t23.5 -35.5q0 -37 -17.5 -68t-39 -60.5t-39 -60t-17.5 -67.5q0 -41 29 -52.5t64 -11.5q57 0 101 46t71.5 110.5t42 133.5t14.5 112q0 16 -5 51t-14.5 72.5t-23.5 69.5t-31 42q-10 6 -26.5 14.5t-32 15.5t-26.5 13l-11 6h-55 l-12 -6q-13 -6 -28.5 -13t-30.5 -15.5t-25.5 -14.5t-18.5 -20.5t-12 -32t-6.5 -34.5t-2.5 -28z" />
<glyph unicode="." horiz-adv-x="348" d="M20 156q0 -68 38 -112t110 -44q76 0 116 50t40 122t-37 118t-113 46h-27q-72 -23 -99.5 -65.5t-27.5 -114.5z" />
<glyph unicode="/" horiz-adv-x="1175" d="M20 -8v-55q0 -12 13.5 -17.5t30 -6.5t30.5 -1h19q33 0 58.5 5t41.5 36q51 94 94 192.5t99 192.5q14 23 22 48.5t25 47.5l225 440l16 25l209 408q2 4 8.5 12t8.5 12l20 40l34.5 69t35 68.5t20.5 39.5q2 2 10.5 15.5t18.5 28t18 27.5t10 17q4 6 13.5 24.5t19.5 39t18.5 39 t12.5 24.5v17q0 23 -14.5 36t-36 19t-44 8t-38.5 2q-43 0 -68 -41q-33 -84 -74.5 -168t-88 -165.5t-92.5 -162.5t-89 -161q-84 -158 -156.5 -323t-164.5 -318q-23 -41 -39.5 -85t-40.5 -83q-35 -57 -72 -114.5t-65 -119.5q-6 -16 -18.5 -43.5t-19.5 -47t-10 -21.5z" />
<glyph unicode="0" horiz-adv-x="1079" d="M20 717q0 -78 26 -182.5t73 -206t113.5 -183.5t148.5 -114q41 -16 91 -20.5t93 -4.5q41 0 99.5 4t93.5 29q168 156 232.5 348.5t64.5 417.5q0 111 -34 231.5t-99.5 222t-161.5 167t-221 65.5q-63 0 -120 -22.5t-105 -59.5t-88 -85t-68 -99q-25 -41 -52.5 -81t-37.5 -87 q-14 -78 -31 -168t-17 -172zM213 743q0 123 29.5 228.5t107.5 206.5q23 29 40.5 46t36.5 26.5t44 12.5t61 3q43 0 74 -1t72 -16l14 -14l21.5 -21.5l21.5 -21.5t15 -14q6 -8 18 -22.5t14 -18.5l80 -168q8 -16 11.5 -41t5.5 -50.5t2 -50.5v-39v-20t-1 -30.5t-1 -30.5v-19 q-6 -18 -7.5 -32.5t-2.5 -28t-2 -29.5t-5 -39q-16 -94 -64 -176t-120 -143q-6 -6 -21.5 -15.5t-19.5 -9.5h-199q-29 23 -54.5 41t-49.5 47q-2 0 -4 6t-4 10q-12 27 -29.5 51.5t-28.5 53.5q-27 76 -41 157.5t-14 161.5z" />
<glyph unicode="1" horiz-adv-x="1013" d="M18 90q0 -18 4 -32.5t31 -24.5q6 -2 19.5 -5t29 -7.5t28.5 -7.5t20 -3q2 0 16 -1t30.5 -3t30 -3t17.5 -1q23 -4 34 -14.5t35 -10.5q18 0 36 8.5t32 20.5h240q25 14 56.5 13t55.5 -1q35 0 63.5 -4t61.5 -4q20 0 43 6.5t43.5 17.5t33.5 28.5t13 39.5q0 16 -8 36t-21.5 36 t-31 27.5t-37.5 11.5h-272l-3 4q-4 4 -6 8l-8 17v583q10 23 10 45v48q0 41 -5 78.5t-5 78.5t5 78t5 78q0 31 -4 63.5t-15 63.5t-32.5 53.5t-54.5 30.5q-18 0 -63.5 2t-95.5 3t-96 2t-65 1h-4q-66 0 -107.5 -18.5t-41.5 -90.5q0 -31 23.5 -58.5t58.5 -27.5h297l6 -12l2 -29 q2 -28 3 -66t2 -79t1 -68q0 -2 1 -15t1 -21q0 -166 -6 -327t-4 -333q-2 -6 -3 -23.5t-4 -35t-6.5 -30.5t-9.5 -15h-45q-43 0 -83 5t-85 5q-10 0 -41.5 -1t-42.5 -1q-23 2 -39 -10.5t-25 -30.5t-13.5 -38.5t-4.5 -39.5z" />
<glyph unicode="2" horiz-adv-x="1030" d="M20 121q0 -49 20.5 -77t74.5 -28q31 0 51 17.5t38.5 39t40 40t52.5 18.5q23 0 44 -8t40 -17q6 -4 26.5 -14t45 -22.5t45 -23.5t26.5 -13q2 0 12.5 -3t20.5 -5t20.5 -4.5t12.5 -2.5q31 -10 51.5 -25.5t56.5 -15.5q35 0 55.5 14.5t51.5 26.5q109 39 155 104.5t46 178.5v47 q0 27 -6.5 49.5t-20.5 38t-45 15.5q-45 0 -61.5 -28t-23.5 -66t-15.5 -77.5t-36.5 -62.5q-43 -10 -66.5 -13t-62.5 -3q-51 0 -93.5 19.5t-82 42t-82.5 42t-95 19.5q-23 0 -39 -2.5t-38 -8.5q-10 2 -11 13v14t1 9l1 5l111 121l11 5t26.5 13.5t32 16.5t26.5 12q45 23 88 31 t88 25q88 31 157 72.5t115 100t69.5 135.5t23.5 177q0 10 -1 42t-3 42q-12 86 -58.5 150.5t-112 108.5t-144 65.5t-158.5 21.5q-61 0 -122 -16.5t-114 -48t-95 -76.5t-69 -101q-16 -35 -32.5 -74.5t-16.5 -80.5q0 -31 10.5 -67t29 -66.5t46 -51t64.5 -20.5q76 0 112.5 56.5 t36.5 123.5q0 25 -8 43.5t-17.5 33.5t-16.5 27.5t-7 22.5q0 18 9 30.5t24 22.5q27 12 48 18.5t41.5 9.5t41 4t47.5 1q70 0 138.5 -13.5t107.5 -74.5q10 -16 24.5 -44t14.5 -30v-176l-2 -6q-2 -6 -7 -10q-29 -41 -67.5 -82t-91.5 -53q-4 0 -16.5 -1t-28 -3.5t-28.5 -3.5 t-15 -1q-4 0 -16.5 -3t-14.5 -5q-4 -2 -20.5 -15t-20.5 -18q-43 -29 -92 -45t-92 -49q-127 -96 -196 -233t-69 -297z" />
<glyph unicode="3" horiz-adv-x="1013" d="M20 326q0 -47 23 -94.5t57.5 -87.5t79.5 -69.5t88 -41.5q2 0 13.5 -3t23.5 -5t22.5 -4.5t12.5 -2.5q29 -8 52.5 -23t51.5 -18h76h78q23 6 40 19.5t40 21.5q61 18 104 45t76 64t57.5 85t49.5 110q2 6 7 20t8 29.5t6 29t3 17.5v200q0 59 -38 125t-83 107q-6 6 -16 15 t-20.5 18.5t-18.5 16.5l-8 7l-143 56q-12 4 -14.5 10t-2.5 16q0 29 20.5 48.5t34.5 37.5q18 25 51 59.5t64 74.5t54.5 80t23.5 73q0 41 -21.5 68.5t-66.5 27.5h-361q-39 -6 -66.5 -7t-66.5 -1q-29 0 -52 4t-50 4q-31 0 -50.5 -12t-31.5 -31.5t-20.5 -43t-14.5 -48.5 q-2 -10 -8 -32.5t-12 -48t-11.5 -48.5t-7.5 -31q0 -2 -1 -6t-1 -6q0 -41 25.5 -70.5t68.5 -29.5q47 0 66.5 31.5t26 68.5t10.5 68.5t20 31.5h332q0 -23 -4 -34t-11 -20t-16.5 -18.5t-19.5 -23.5q-2 -4 -9.5 -15.5t-15.5 -25.5t-14 -25.5t-8 -13.5q-20 -29 -51 -57.5 t-58.5 -59t-48 -63.5t-20.5 -70q0 -47 23.5 -63.5t68.5 -16.5q37 0 62.5 8.5t53.5 32.5h121q72 -59 117 -122.5t45 -165.5q0 -86 -28.5 -157t-100.5 -124q-23 -16 -52.5 -22.5t-51.5 -24.5h-154q-14 12 -37.5 19.5t-45 17.5t-37 24.5t-15.5 38.5q0 27 12 51.5t12 53.5 q0 27 -7 55.5t-22.5 53t-39 40t-55.5 15.5q-47 0 -80 -17.5t-53.5 -47.5t-30 -67.5t-9.5 -80.5z" />
<glyph unicode="4" horiz-adv-x="1079" d="M20 467q0 -35 31 -63.5t66 -28.5h360q23 8 40.5 9t37.5 1q6 0 17 -1l10 -1l16 -16v-119l-16 -17q-41 -4 -82 -13t-78 -19q-29 -16 -39 -44t-10 -57q0 -31 23.5 -53t56.5 -22h473q37 0 59.5 24.5t22.5 58.5q0 43 -15.5 66t-41 32t-58.5 10t-70 1q-10 4 -25.5 16.5 t-15.5 24.5v102q0 6 8.5 10.5t18.5 7.5t19 5l10 2q8 0 30.5 2t47 3t46 2t29.5 1q63 16 64 78q0 14 -6.5 32.5t-16.5 35t-24.5 27.5t-32.5 11h-180v746q0 2 -3.5 16.5t-8.5 33t-10 35.5t-7 28q-10 35 -41 54t-68 19t-60.5 -18.5t-40.5 -46t-31.5 -58t-30.5 -55.5 q-90 -125 -160 -259t-146 -269l-86 -156t-82 -158v-20zM285 575v13q0 23 21.5 73t53 113.5t71.5 131t77 122.5t66.5 91t41.5 36q0 -78 -6 -148.5t-6 -146.5q0 -41 5 -80t5 -80q0 -10 1 -26.5t-1 -33.5t-7 -32.5t-17 -23.5q-59 -2 -116.5 -9.5t-117.5 -7.5h-63q-8 2 -8 8z " />
<glyph unicode="5" horiz-adv-x="958" d="M20 334q0 -43 21.5 -89t54.5 -89t73 -76t77 -47q27 -10 55.5 -11.5t54.5 -11.5q25 -10 45.5 -21.5t47.5 -11.5q35 0 67.5 15.5t65.5 25.5q2 0 12 2.5t22.5 4.5t23.5 5t13 3q6 2 17.5 8t25 12t23.5 12.5t14 8.5q49 35 87 92t63.5 122.5t39 132t13.5 120.5q0 100 -37 189 t-78 177q-57 59 -119 113q-10 2 -32.5 9t-48 13.5t-49 11.5t-31.5 5q-2 2 -29 2h-39q-51 0 -95 -17.5t-93 -17.5q-16 0 -24.5 24.5t-8.5 36.5v5q2 4 5 23.5t3 23.5q0 6 2 21.5t3 31.5t2 30.5t1 20.5q10 16 35 20.5t39 4.5h248q25 -10 54.5 -9t53.5 1q25 0 51.5 1t48 9 t35 25.5t13.5 50.5q0 78 -49 104.5t-115 26.5q-31 0 -60.5 -4.5t-60.5 -4.5q-59 0 -115.5 8.5t-115.5 8.5q-29 0 -58.5 -1t-58.5 -7.5t-53.5 -19.5t-42.5 -38q-23 -66 -32 -136.5t-9 -139.5q0 -41 5 -80t5 -80q0 -61 -9 -120.5t-9 -123.5q0 -31 23.5 -59.5t58.5 -28.5 q25 0 39 10.5t24 27t18.5 33.5t20.5 34q27 35 60.5 57.5t68.5 44.5q8 8 16 8h168q12 0 31.5 -15t39 -35.5t36 -42t22.5 -34.5q6 -10 13.5 -27.5t15.5 -35t13 -29.5l5 -12v-217q0 -27 -14 -55.5t-35.5 -54t-45 -48t-40.5 -35.5q-20 -16 -50 -15t-54 -7q-20 -8 -35.5 -21.5 t-36.5 -13.5q-12 0 -40 8t-55.5 22.5t-48 32t-18.5 35.5q4 29 14.5 50.5t10.5 50.5q0 63 -30 105t-93 42q-74 0 -112 -54t-38 -126z" />
<glyph unicode="6" horiz-adv-x="991" d="M20 559q0 -2 2.5 -12t5.5 -22.5t6 -24t3 -13.5q18 -102 51 -188t86 -147.5t134 -96.5t196 -35q113 0 191.5 35t132 97.5t86 150.5t53.5 193v28q0 39 -15.5 94.5t-41 111.5t-58.5 104.5t-70 70.5q-27 16 -55.5 27.5t-57 21t-57 20.5t-55.5 27h-111q-16 0 -37.5 -17 t-35.5 -23q-10 -4 -27.5 -11.5t-35 -13.5t-30.5 -10l-12 -4h-20q0 49 29.5 108.5t74.5 113.5t98.5 96t98.5 58h12q10 0 17.5 -3t11.5 -13q16 -66 45 -110t102 -44q66 0 105 38t39 104q0 61 -21.5 105t-58.5 74t-86 44t-105 14q-45 0 -74.5 -6t-54 -17t-51.5 -25.5t-65 -33.5 q-8 -8 -29 -28.5t-44.5 -45t-43 -47t-27.5 -30.5q-2 -2 -9 -13.5t-15.5 -23.5t-15.5 -22.5t-9 -12.5q-4 -4 -15.5 -20.5t-15.5 -20.5q-78 -129 -99.5 -269.5t-21.5 -285.5v-47zM221 543q0 78 25.5 134t95.5 99q8 6 26.5 15.5t20.5 9.5h184q27 0 62 -23.5t65.5 -57.5t52 -72 t21.5 -64v-185l-8 -16q-47 -78 -110.5 -124t-157.5 -46q-6 0 -30 1t-30 1q-4 0 -9 3t-7 5q-55 35 -93 64.5t-61.5 65.5t-35 80t-11.5 110z" />
<glyph unicode="7" horiz-adv-x="917" d="M20 1350q0 -23 1.5 -38.5t11.5 -37.5v-344q0 -37 30.5 -66.5t65.5 -29.5q27 0 44 14t28.5 36.5t15.5 48t4 50.5q0 31 -5 61.5t-5 63.5q0 31 11 61.5t31.5 54t49.5 38t62 14.5q16 0 28.5 -2t26.5 -14l121 -113q6 -6 24.5 -11.5t24.5 -5.5t19.5 -2t27.5 -3t27.5 -2t19.5 -1 q8 -2 9 -8t1 -10q0 -35 -19.5 -82t-48 -94t-59 -91t-51.5 -75q-10 -16 -15 -35.5t-16 -36.5q-10 -14 -22 -26.5t-19 -28.5q-41 -117 -72.5 -237.5t-31.5 -243.5v-58t16 -55q18 -23 35 -39t45 -16q41 0 70 33.5t35 70.5q0 12 1 44t2 68t3 67.5t2 43.5q4 55 21.5 106.5 t42 98.5t52 94t52.5 95q37 70 65.5 134t50 129.5t36 134.5t24.5 146l1 15q1 16 1 26q0 20 -2 49t-11.5 55.5t-26.5 45t-46 18.5q-35 0 -50.5 -24.5t-25.5 -53t-24.5 -53t-46.5 -24.5q-33 0 -66 28.5t-71 64.5t-80 64.5t-93 28.5q-16 0 -31.5 -6t-31 -14.5t-30.5 -14.5 t-34 -6q-31 0 -51 16.5t-53 16.5q-57 0 -79 -43t-22 -90z" />
<glyph unicode="8" horiz-adv-x="1087" d="M20 432q18 -113 67.5 -190.5t121.5 -126.5t163 -72t197 -23h21q14 0 30.5 1.5t28.5 1.5h21q61 12 116.5 39.5t108.5 56.5q80 72 124 164t44 200q0 70 -16.5 136.5t-55.5 123.5q-10 14 -29.5 26.5t-40 25t-36 26t-15.5 31.5v12q25 14 47.5 45t41 68t29.5 73.5t11 67.5 q0 49 -15 102.5t-44 102.5t-69 88t-89 55q-53 18 -104 38t-109 20q-66 0 -132 -14.5t-125.5 -44t-106.5 -77t-72 -114.5q-4 -10 -10 -32.5t-12.5 -47.5t-11.5 -48.5t-7 -31.5v-35q0 -43 11.5 -76.5t37.5 -72.5q6 -10 19.5 -20.5t27 -20.5t23.5 -22.5t10 -26.5t-13 -26.5 t-30.5 -25t-35 -23.5t-25.5 -22q-47 -61 -72 -134.5t-25 -151.5v-25zM203 459q0 55 13 95t40 69.5t64.5 52t85.5 45.5q8 4 26.5 10t20.5 6h186q8 0 46 -16t79 -41t73.5 -53.5t32.5 -51.5v-167l-8 -17q-16 -29 -39.5 -57.5t-51.5 -51t-61.5 -37t-70.5 -14.5h-186 q-41 0 -80 15.5t-71 41t-57.5 58.5t-39.5 70q0 4 -1 21.5t-1 21.5zM285 1118q0 51 23.5 91t61.5 68t85 41t94 13q45 0 91 -11t83 -34.5t60.5 -61.5t23.5 -89q0 -84 -45 -138.5t-123 -74.5q-10 -2 -39 -2h-39q-49 0 -98 8t-89 30.5t-64.5 60.5t-24.5 99z" />
<glyph unicode="9" horiz-adv-x="983" d="M18 991q0 -86 36 -173t97.5 -156.5t142.5 -113.5t173 -44q47 0 92 11t86 28q29 10 50.5 28.5t52.5 18.5q0 -43 -34 -107.5t-82 -125t-101.5 -102.5t-92.5 -42q-29 0 -39 26.5t-21 58.5t-36 58.5t-84 26.5q-70 0 -105.5 -38.5t-35.5 -108.5q0 -29 6 -66t27 -59 q10 -10 22 -25.5t27.5 -30t33 -23.5t35.5 -9h217q45 0 99.5 37.5t106.5 91t94 108.5t61 92q6 12 18.5 36t23.5 46.5t20.5 40t11.5 21.5q23 55 22 110q0 57 16 115v264q0 2 -5 22.5t-11 48t-12 57.5t-10 48q-18 68 -61.5 128.5t-104 105.5t-130 70.5t-139.5 25.5 q-106 0 -197 -46t-155 -132q-6 -6 -21.5 -23.5t-19.5 -32.5l-72 -241l-1 -10q-1 -11 -1 -15zM197 1036q0 47 14 73t43 60q29 37 49.5 59.5t45 35t56 16.5t84.5 4q10 0 39 -1t37 -1q106 -45 154.5 -125t48.5 -192q0 -45 -6 -79t-21.5 -62.5t-41 -53.5t-62.5 -49 q-8 -6 -29.5 -15.5t-25.5 -9.5h-152q-37 0 -67.5 27t-53.5 45q-39 31 -61.5 58.5t-33.5 57t-14 66.5t-3 86z" />
<glyph unicode=":" horiz-adv-x="348" d="M20 150q0 -68 38 -112t110 -44q76 0 116 50t40 122t-37 118t-113 46h-27q-72 -23 -99.5 -65.5t-27.5 -114.5zM20 915q0 -68 38 -111.5t110 -43.5q76 0 116 50t40 122t-37 118t-113 46h-27q-72 -23 -99.5 -66t-27.5 -115z" />
<glyph unicode=";" horiz-adv-x="403" d="M20 170q0 -55 24 -86t52.5 -49.5t52 -31.5t23.5 -36q0 -37 -17.5 -67.5t-39 -60t-39 -60.5t-17.5 -68q0 -41 29 -52t64 -11q57 0 101 46t71.5 110.5t42 133t14.5 111.5q0 16 -5 51t-14.5 73t-23.5 69.5t-31 42.5q-10 6 -26.5 14t-32 15.5t-26.5 13.5l-11 6h-55l-12 -6 q-13 -6 -28.5 -13.5t-30.5 -15.5t-25.5 -14t-18.5 -20.5t-12 -32t-6.5 -35t-2.5 -27.5zM35 862q0 -68 39 -111.5t110 -43.5q76 0 116 51t40 121q0 72 -38 118.5t-112 46.5q-6 0 -15 -1t-11 -1q-72 -23 -100.5 -65.5t-28.5 -114.5z" />
<glyph unicode="?" horiz-adv-x="854" d="M20 1135q0 -41 8.5 -77t27 -62.5t48 -43t72.5 -16.5q59 0 100 32.5t41 98.5q0 31 -14 54.5t-30.5 44t-31 40t-14.5 43.5v13q0 6 11 10q45 25 86 41t94 16q113 0 182.5 -73.5t69.5 -186.5q0 -41 -18.5 -89t-61.5 -69l-176 -80q-31 -14 -49.5 -39.5t-27.5 -58.5t-11 -66.5 t-2 -64.5q0 -23 4 -46.5t15 -45t28.5 -34.5t44.5 -13q33 0 50 19.5t25.5 48t9.5 60.5t1 56q6 12 32.5 29.5t59.5 36t65.5 35t49.5 28.5q33 20 56 59t37.5 83.5t21.5 90.5t7 83q0 10 -1 30.5t-1 22.5t-5 19.5t-11 41t-12 46t-10 36.5q-2 4 -5.5 9.5t-3.5 7.5l-129 151 q-10 12 -44 22.5t-75.5 17.5t-80.5 12t-60 5q-80 0 -148.5 -29.5t-118.5 -79.5t-78 -120t-28 -149zM283 213q0 -29 10 -61.5t28.5 -61.5t45 -48t59.5 -19t60.5 15t47 39.5t29.5 55.5t10 62q0 63 -36.5 110t-104.5 47q-59 0 -104 -39t-45 -100z" />
<glyph unicode="A" horiz-adv-x="1247" d="M18 111q0 4 1 17t1 17q20 25 37 37.5t35.5 19.5t39 13t48.5 18q14 6 25.5 22.5t18.5 35t12.5 38t9.5 33.5q6 20 19.5 71.5t28.5 109t28.5 108.5t19.5 72q18 45 24.5 88t22.5 88q33 98 66.5 196.5t62.5 196.5q6 20 13.5 51t19.5 59t32.5 47t53.5 19q37 0 59.5 -24.5 t35.5 -58t20.5 -69.5t13.5 -56q20 -70 32.5 -143t47.5 -138l192 -729q6 -20 23.5 -32.5t40 -20t44 -11.5t38.5 -8q39 -25 39 -76q0 -49 -31 -74.5t-78 -25.5q-51 0 -106.5 3t-104.5 5q-33 0 -61.5 2t-51 11.5t-36 30t-13.5 57.5v34q14 18 34 27.5t39.5 18t34.5 17.5t21 25 q0 4 -2 17.5t-5 28t-5 26.5t-4 17q-2 6 -6 22t-12.5 34.5t-17.5 33t-19 14.5h-322q-4 0 -20.5 -13.5t-18.5 -17.5l-57 -121q0 -2 -1 -12t-1 -14q0 -35 19.5 -47.5t42 -22.5t42 -27.5t19.5 -60.5q0 -47 -32 -67.5t-77 -20.5q-29 0 -56.5 4t-57.5 4q-41 0 -80 -7t-80 -7 q-47 0 -74 36t-27 79zM492 635q0 -4 1 -12.5t1 -12.5q23 -14 43 -15t49 -1q41 0 81 6t83 10l8 8q0 2 1 11.5t1 13.5q0 16 -8.5 56t-21.5 88.5t-29.5 99.5t-31 93t-24.5 69.5t-12 27.5q-8 0 -12.5 -10t-6.5 -14q-6 -16 -17 -48t-23.5 -64t-21.5 -57.5t-11 -31.5 q-16 -53 -32.5 -108.5t-16.5 -108.5z" />
<glyph unicode="B" horiz-adv-x="1208" d="M20 106q0 -45 29 -76.5t76 -31.5h25q39 0 132 1t203 1q111 0 204 1t134 1q57 10 107.5 34.5t101.5 53.5q37 33 65.5 78t48 96t30 103.5t10.5 99.5q0 66 -16.5 116t-49.5 109q-8 12 -22.5 24.5t-28.5 27t-25.5 27.5t-11.5 26q0 23 22.5 53.5t32.5 42.5q25 37 37.5 86 t12.5 94q0 92 -28 161t-79 116t-123.5 76.5t-163.5 43.5h-41q-86 0 -169.5 -12t-170.5 -12h-124q-37 10 -61.5 13t-57.5 3q-45 0 -72 -27.5t-27 -72.5q0 -57 40 -83t94 -26q25 0 48 4.5t48 4.5h14q16 0 34.5 -6.5t18.5 -18.5v-1034l-8 -8q-2 0 -15 -1t-20 -1q-37 0 -71.5 5 t-69.5 5h-49q-64 -27 -64 -97zM502 211v457q0 4 9 12t15 12h6q14 0 25.5 -4t26.5 -4q14 0 22 2t25 14h231q4 0 19.5 -9t21.5 -15l96 -96q18 -19 18 -54l-1 -63q0 -53 -7.5 -94t-27.5 -73t-54 -56.5t-87 -44.5q-72 -2 -140.5 -9.5t-138.5 -7.5q-12 0 -35.5 7.5t-23.5 25.5z M502 909v353h256q41 -10 66.5 -13.5t46 -10.5t38 -24.5t41.5 -56.5q8 -8 8 -16v-135q0 -20 -11 -39t-27.5 -34t-34 -27.5t-31.5 -20.5q-55 -4 -127 -6t-137 -2h-25q-20 0 -41.5 5t-21.5 27z" />
<glyph unicode="C" horiz-adv-x="999" d="M20 604q14 -53 16.5 -104t24.5 -105q4 -12 16.5 -38.5t26 -57.5t27 -58.5t19.5 -37.5q66 -111 178 -160t235 -49q82 0 156 45t131 113.5t91 151.5t34 159q0 20 -1 42.5t-9.5 41t-23.5 30t-42 11.5q-43 0 -68 -41q-20 -57 -43.5 -119.5t-58.5 -115t-86 -86t-125 -33.5 q-8 0 -23.5 1t-17.5 1q-68 16 -114 56t-74.5 92t-44 113.5t-23.5 123.5q-2 4 -4 20t-5 21v256q0 55 15 111t41.5 108.5t63.5 97.5t82 76q4 2 9 5t7 3h135q2 0 11.5 -3t13.5 -5q43 -20 71.5 -41t48 -46.5t32 -58t24.5 -80.5q6 -18 9 -52t12.5 -66.5t28 -57t50.5 -24.5 q18 0 36 14t30 34.5t19 42t7 38.5v248q0 6 -3 24.5t-5 24.5v4q0 23 5.5 44t5.5 44q0 20 -3.5 41.5t-12.5 40t-25.5 31t-40.5 12.5q-25 0 -41.5 -14.5t-27.5 -31t-21.5 -30.5t-22.5 -14h-8q-72 41 -131.5 65.5t-137.5 24.5q-21 0 -45 1h-4q-22 0 -43 -9q-8 -4 -26.5 -13.5 t-38 -19.5t-38 -19.5t-26.5 -13.5q-14 -12 -36.5 -37.5t-45 -54.5t-40 -56.5t-21.5 -43.5l-88 -289q-2 -25 -6 -55.5t-11 -57.5v-215z" />
<glyph unicode="D" horiz-adv-x="1239" d="M20 139q0 -39 17.5 -65.5t45.5 -43t61.5 -23.5t66.5 -7h35q4 0 21.5 4t37 8t37.5 8.5t23 4.5q6 0 26.5 1t46 2t51 3t37.5 2q80 2 142.5 3t119 12t110.5 37t116 75q8 6 29.5 27.5t27.5 29.5q80 150 113 309.5t33 329.5q0 70 -17.5 154t-52.5 162.5t-88 143t-125 95.5 q-59 25 -119.5 36t-120.5 36h-280q-27 -10 -59.5 -9t-57.5 1q-41 0 -77 4t-75 4q-55 0 -90 -24.5t-35 -84.5q0 -43 29 -75.5t76 -32.5h168q8 0 16 -9q8 0 8 -8l-4 -344v-39v-360v-41l4 -225l-16 -15q0 -2 -12 -2h-21q-35 0 -65.5 5t-65.5 5q-51 0 -84 -17.5t-33 -76.5z M502 256l4 641l2 41v319l10 17l14 1q15 1 23 1q131 0 222 -23.5t149.5 -77t85 -142.5t26.5 -220q0 -66 -5 -149.5t-26.5 -164.5t-63.5 -147.5t-114 -95.5q-57 -23 -123.5 -28t-127.5 -5q-6 0 -18.5 2t-25 6.5t-22.5 10.5t-10 14z" />
<glyph unicode="E" d="M20 1374q0 -59 35 -83.5t90 -24.5q35 0 67 5t67 5h22t16 -2l17 -14v-52q0 -25 1 -58.5t-9 -59.5l4 -281v-39l4 -481q0 -12 -6 -34t-19 -30q-10 0 -26.5 -3t-35 -6t-35.5 -5t-28 -2h-4q-4 0 -23.5 3t-23.5 5h-12q-27 0 -43.5 -11t-25.5 -29.5t-13 -41.5t-4 -43 q0 -35 12 -53.5t33.5 -27.5t48.5 -10t55 -1q26 0 58 -1h5q29 0 54 9h682q23 -8 41 -8h43q74 0 119 41t45 117q0 23 -1 38t-11 37v281q0 39 -27 79t-70 40q-35 0 -59.5 -26.5t-24.5 -61.5v-201q0 -6 -6 -19.5t-10 -19.5q-27 -49 -55.5 -64.5t-62.5 -17.5q-23 -1 -48 -1h-26 h-5q-38 0 -84 -13h-206l-17 16v449l2 6t6 10q0 8 9 8h88q12 0 29.5 -15t35 -34.5t29.5 -40t16 -30.5v-64t8.5 -75t29 -61.5t60.5 -25.5q63 0 65 66v672q0 35 -21 58t-54 23q-41 0 -55 -26.5t-18.5 -63.5t-6.5 -74.5t-16 -60.5q-16 -27 -44 -37t-50 -26h-105l-8 8l-2 10 q-2 10 -5 23.5t-5 29t-4 25.5v2v4q0 4 4 24.5t4 24.5q0 12 1 45t3 70t3 70.5t1 46.5l8 8h392q16 0 39.5 -21.5t33.5 -33.5q8 -12 21.5 -37t13.5 -27v-217q0 -33 27.5 -53.5t56.5 -20.5q35 0 61.5 22.5t26.5 59.5v432q0 31 -20.5 66t-51.5 39q-71 -1 -143 -1q-179 0 -355 4 q-248 5 -497 5q-53 0 -82 -34t-29 -83z" />
<glyph unicode="F" horiz-adv-x="1216" d="M20 117q0 -14 5.5 -31.5t14.5 -33t22.5 -27t29.5 -11.5h498q4 2 20.5 5.5t20.5 3.5q8 0 29.5 2t46 3t46 2t29.5 1q66 16 66 88q0 27 -15.5 45t-38 29.5t-49 16.5t-47.5 5q-27 0 -52 -4t-52 -4q-18 0 -37.5 3t-30.5 21q-2 74 -9 142.5t-7 142.5v92q4 27 25 41h43 q53 0 83.5 -18.5t49.5 -71.5q0 -10 1 -33.5t2 -50t3 -51.5t2 -33q4 -35 25.5 -61.5t58.5 -26.5q33 0 50 16.5t25.5 41t9.5 52t1 50.5v53q0 29 -15 51v475q0 31 -27.5 51.5t-55.5 20.5q-35 0 -51.5 -22.5t-22.5 -53t-6 -63.5v-53q-4 -10 -10.5 -25.5t-16.5 -30t-21.5 -23.5 t-23.5 -9h-104q-6 0 -11.5 11t-8.5 25.5t-4 29.5t-1 24q0 29 4 53t4 53q0 45 -5 87t-5 89q0 10 1 34t1 26l8 8q72 2 137.5 9t135.5 7q63 0 111 -10t89 -61q6 -8 17.5 -26.5t11.5 -23.5v-297q0 -20 28.5 -41.5t51.5 -21.5q18 0 35.5 13.5t30 34t19.5 42t7 39.5v440 q0 39 -33 72t-72 33l-489 -4h-39l-233 -4q-45 14 -91.5 15t-93.5 1q-51 0 -82.5 -40t-31.5 -87t27.5 -72.5t74.5 -25.5q35 0 66.5 5t68.5 5q10 0 30.5 -1t22.5 -1l9 -8l16 -80v-619q-4 -16 -6 -26.5t-2 -24.5q0 -16 2 -25.5t6 -27.5v-248l-8 -8q-2 0 -17.5 -1t-25.5 -1 q-37 0 -73 5t-73 5q-51 0 -88 -20.5t-37 -77.5z" />
<glyph unicode="G" horiz-adv-x="1159" d="M20 602q14 -55 19.5 -112.5t21.5 -112.5q16 -70 56.5 -137.5t95.5 -120.5t124 -86t144 -33q25 0 43 -1h4q17 0 37 9q18 6 37 19.5t39.5 27t39.5 23.5t38 10q12 0 20.5 -12.5t18.5 -27.5t25.5 -27.5t41.5 -12.5q47 0 74 39t27 84q0 25 -4 48.5t-4 49.5v41q0 20 8 43v232 q0 4 3 20.5t13 20.5q27 0 60.5 2t63.5 11t49.5 30.5t19.5 60.5q0 29 -11.5 46.5t-30 26.5t-42 12t-47.5 3q-29 0 -56.5 -4t-56.5 -4q-66 0 -131.5 12.5t-130.5 12.5q-39 0 -59.5 -33t-20.5 -68t16.5 -54t42 -30.5t55 -16.5t56.5 -7l14 -17q2 -2 2 -20v-25 q0 -55 -17.5 -112.5t-50 -102.5t-79.5 -73.5t-107 -28.5q-59 0 -108 39t-84 95t-55.5 118.5t-20.5 109.5v394q8 18 12 29.5t6 21.5t4.5 24.5t10.5 36.5q29 90 83 153.5t152 63.5q84 0 132.5 -27.5t74 -70.5t35.5 -91t20.5 -91t27.5 -71t58 -28q45 0 65.5 38t29 88.5 t10.5 99.5t8 71v226q0 33 -18.5 49t-49.5 16q-37 0 -55 -16.5t-29.5 -37t-19.5 -36.5t-25 -16q-27 0 -45 21.5t-38 33.5q-39 27 -90.5 46.5t-98.5 19.5q-80 0 -151.5 -48.5t-128 -119t-93.5 -153.5t-47 -153q-10 -55 -14 -112.5t-19 -112.5v-215z" />
<glyph unicode="H" d="M20 117q0 8 4.5 26.5t12.5 37t18.5 31.5t20.5 13h121q4 0 12 5.5t12 9.5q-1 106 -1 210t1 208q2 206 8 417q8 25 9 62v63v51l-25 23q-6 0 -23.5 1t-37 3t-37 3t-23.5 1q-23 2 -35 14.5t-18 29.5t-8 36.5t-2 38.5q0 35 20.5 66.5t59.5 30.5h376q41 0 69 -34t28 -71 q0 -39 -13.5 -61.5t-35 -35t-51 -16.5t-60.5 -6q-4 -4 -10 -11.5t-6 -11.5v-338q0 -14 11 -15t19 -1q20 0 39 5t39 5q23 0 42 -5t42 -5q20 0 38.5 5t39.5 5q23 0 36 -13t33 -13q39 0 60.5 17t30 44t9.5 59.5t1 65.5v100v99q-2 10 -33 13t-65.5 13.5t-64.5 34t-30 74.5 q0 33 14.5 53.5t37 29.5t50 12t54.5 2q33 0 61.5 -3.5t59.5 -3.5q29 0 53.5 4t50.5 3q31 0 66 -5.5t64.5 -21t48 -41t18.5 -64.5q0 -55 -42 -73.5t-91 -18.5h-60l-12 -8v-856q-10 -20 -11 -35t-1 -35t3 -56t21 -44q27 0 61 -3.5t62.5 -14.5t49 -31.5t20.5 -57.5 q0 -20 -8.5 -41.5t-21.5 -39t-32.5 -29t-42.5 -11.5h-280q-4 -2 -19.5 -6t-19.5 -6h-4q-55 0 -102.5 34t-47.5 91q0 33 13.5 52.5t35 29.5t49 13t56.5 5l22 23l17 80v329q0 10 -14.5 23.5t-16.5 17.5q-86 0 -161.5 8.5t-155.5 8.5q-8 0 -34 -1t-34 -1q-10 -4 -17 -16.5 t-7 -22.5v-434l16 -15q29 0 57.5 -4t52 -15t38 -32.5t14.5 -56.5q0 -43 -28 -70t-71 -31q-72 -6 -150.5 -11t-150.5 -5q-31 0 -60.5 3t-53 15.5t-37 35t-13.5 63.5z" />
<glyph unicode="I" horiz-adv-x="925" d="M20 102q0 -35 13.5 -57t36 -35.5t50 -18.5t56.5 -5q47 0 88 4t88 4q23 0 61 1h7q34 0 57 -9h281q53 0 99 31.5t46 91.5q0 18 -11 36.5t-27.5 31.5t-37 21.5t-39.5 8.5h-198l-25 26v537q6 20 7 34.5t1 33.5q0 20 -1 33.5t-7 35.5v344l8 9h41q39 0 74 -5.5t74 -5.5 q53 0 89 17.5t36 76.5q0 63 -40 84q-39 21 -95 25q-37 3 -75 3q-19 0 -38 -1h-11q-49 0 -79 16h-328q-20 10 -31.5 11.5t-27.5 1.5q-23 0 -47.5 -7.5t-44 -21.5t-31.5 -34.5t-12 -45.5q0 -23 12 -45t30.5 -40.5t41 -30t45.5 -11.5h217l8 -12q0 -2 1 -11.5t1 -13.5 q0 -20 -2 -35.5t-12 -35.5v-906q0 -6 -14.5 -11t-31 -8t-33 -4t-18.5 -1q-29 0 -56.5 5t-55.5 5q-53 0 -96.5 -29t-43.5 -88z" />
<glyph unicode="J" horiz-adv-x="1150" d="M20 301q0 -80 32 -142.5t84 -104.5t122 -63.5t143 -21.5q106 0 172 40t106 104.5t61.5 146.5t41.5 166l-4 473v41l-4 303l17 17l17 1t28 1q39 0 74.5 -5.5t76.5 -5.5t76 10.5t63 47.5v34q0 59 -37.5 86t-91.5 39h-88q-23 0 -61 1h-7q-34 0 -59 -9h-344q-25 6 -40 7t-38 1 q-53 0 -97 -28.5t-44 -87.5q0 -55 49 -92q25 -10 42.5 -14.5t32.5 -7.5t32 -3h39q35 0 66.5 5t66.5 5q6 0 16 -1l10 -1l17 -16v-43q0 -25 1 -54.5t-9 -54.5l4 -231v-41l4 -297q-2 -4 -5 -19.5t-3 -19.5q0 -8 -2 -30.5t-3.5 -47t-2.5 -46t-1 -30.5q-4 -12 -16 -35.5 t-30.5 -45t-38 -38t-35.5 -16.5h-160q-10 0 -21.5 12.5t-11.5 22.5v4q2 4 5 16.5t3 16.5q20 18 35.5 32.5t26 30t15.5 32.5t5 44q0 29 -12 61.5t-33.5 59.5t-50.5 44t-61 17q-10 0 -26.5 -4t-25.5 -12q-59 -53 -90 -112.5t-31 -141.5z" />
<glyph unicode="K" d="M20 1356q0 -53 20.5 -67.5t48.5 -16.5t55.5 -3t43.5 -24q6 -63 7.5 -104t1.5 -99v-49q0 -23 -13 -45v-745l-12 -8q-27 0 -52.5 -3.5t-46 -13.5t-32.5 -28.5t-12 -51.5q0 -41 21.5 -72.5t66.5 -31.5q63 0 123.5 8t119.5 8q29 0 56.5 -4t56.5 -4q47 0 90 27.5t43 81.5 q0 25 -17.5 52t-47.5 27h-144l-16 21l-2 19q-2 20 -5 46.5t-5 55t-4 47.5v53q0 35 2 72t14 67q6 12 28.5 39t49 54.5t49 48t27.5 18.5q8 -4 24 -29.5t37.5 -63.5t46.5 -83t46.5 -87t40 -75t28.5 -47q2 -2 5 -7t3 -9q8 -18 20.5 -46t12.5 -55q0 -25 -21.5 -32t-47 -11 t-47 -16t-21.5 -49t15 -59.5t39.5 -36t55.5 -18.5t62 -5q35 0 65.5 4t63.5 4t63.5 -4t65.5 -4q66 0 103.5 22.5t37.5 96.5q0 31 -21.5 48t-51.5 26.5t-61.5 11.5t-51.5 4l-41 39q-47 94 -95.5 187t-103.5 181q-29 43 -52.5 103.5t-43.5 97.5q-2 4 -13.5 16.5t-11.5 16.5 l-1 9q-1 9 -1 13q0 23 22.5 55t53.5 63.5t62.5 60t47.5 47.5q37 41 65 84t71 76q31 2 64.5 4t60 11t44 30.5t17.5 60.5q0 59 -29.5 81.5t-87.5 22.5q-35 0 -64.5 -5t-64.5 -5t-68.5 5t-68.5 5q-23 0 -46.5 -2t-42 -11t-30.5 -26.5t-12 -46.5q0 -31 11 -53t25.5 -36.5 t26 -24.5t11.5 -17q0 -14 -8.5 -34.5t-18.5 -30.5l-143 -144q-10 -35 -38 -64.5t-50 -55.5q-8 -10 -21.5 -23.5l-26 -26t-22.5 -21.5l-10 -9h-33l-16 47v233q8 27 11 56.5t5 56.5q0 2 3 4t5 4q2 0 10.5 1t17.5 2t17 3t10 2q6 0 22.5 3.5t35 7.5t34 7t21.5 5q23 16 32 33.5 t9 44.5q0 49 -39 74.5t-86 25.5q-35 0 -66.5 -5t-66.5 -5q-49 0 -93 13t-91 13q-55 0 -95.5 -25.5t-40.5 -88.5z" />
<glyph unicode="L" horiz-adv-x="1222" d="M20 1366q0 -35 24 -69.5t65 -34.5h217l22 -29q2 0 2 -27v-39v-67q0 -45 -10 -74v-616q10 -25 10 -52v-49q0 -8 -1 -30.5t-1 -30.5q-10 -16 -28.5 -28.5t-36.5 -12.5q-35 0 -68 13t-68 13q-53 0 -85.5 -26.5t-32.5 -81.5q0 -53 37.5 -85t91.5 -32q66 0 128.5 8.5 t125.5 8.5q43 0 84 -12.5t82 -12.5h4q4 2 19 6t20 6h473q23 0 42 15.5t32.5 38t21.5 48t8 44.5q0 16 -1 27.5t-11 31.5v361q0 39 -21.5 67.5t-58.5 28.5q-43 0 -62.5 -30t-26.5 -75t-8 -98t-8.5 -101t-25 -84t-57.5 -46q-10 0 -34 -1t-50.5 -2t-51 -3.5t-32.5 -2.5 q-23 -2 -39.5 -13t-36.5 -11q-10 0 -12.5 1t-5.5 3t-8 5t-19 9q-6 2 -22.5 4t-33 4.5t-29 5.5t-12.5 9v794q2 4 5.5 19.5t3.5 19.5q0 10 2 35t3 53.5t2 53t1 34.5l8 9h234q37 0 58 25.5t21 60.5q0 37 -17 59.5t-44 34.5t-58.5 16t-60.5 4q-35 0 -65.5 -4t-63.5 -4 q-31 0 -59.5 4t-61.5 4t-63.5 -4t-63.5 -4q-41 0 -82 8.5t-81 8.5q-51 0 -90.5 -27t-39.5 -82z" />
<glyph unicode="M" horiz-adv-x="1247" d="M18 117q0 47 22.5 63.5t50.5 22.5t50.5 12t22.5 33l-4 201v40q0 12 -1 43t-1 66v64v43q0 4 1 22t2 37.5t2 38t1 22.5q0 2 1 28t1 58v68v55v41v62q0 35 -1 64.5t-1 41.5q-8 20 -31.5 24.5t-49.5 10.5t-45.5 23.5t-19.5 64.5q0 35 21.5 67.5t60.5 32.5h234q25 0 53.5 -16 t42.5 -39q35 -59 43 -135t21 -146q20 -111 32.5 -216t30.5 -216q4 -25 11 -64.5t15.5 -78.5t14.5 -67.5t8 -30.5l17 -39q8 2 21 68.5t28.5 167t33 219t31.5 227.5q16 111 29.5 190.5t24 104t30 50t49.5 21.5q10 0 42 1t42 1q16 0 48 -1t36 -1q31 -2 59.5 -7t52.5 -16 t37 -31.5t13 -53.5q0 -4 -1 -17.5t-1 -17.5q-25 -35 -53.5 -42t-65.5 -24q-4 0 -6 -3l-2 -3v-794q2 -4 4 -19.5t4 -19.5q0 -10 1 -34t3 -51.5t3 -51t1 -33.5q2 -10 24 -11t47.5 -9.5t46 -31t20.5 -77.5q0 -35 -13.5 -55.5t-34 -32t-48 -14.5t-54.5 -3q-35 0 -65.5 5.5 t-63.5 5.5q-25 0 -48.5 -4.5t-47.5 -4.5q-25 0 -44.5 7.5t-33.5 16.5t-23.5 17.5t-15.5 8.5l-3 -2q-3 -1 -5 -1q-23 -31 -43 -47t-55 -16q-25 0 -41.5 11.5t-27.5 25.5t-19.5 25.5t-20.5 11.5q-2 0 -5 -1l-3 -1l-15.5 -15.5t-20.5 -19.5t-23.5 -17.5t-20.5 -7.5h-233 q-20 -10 -33.5 -11t-34.5 -1q-55 0 -83 31t-28 86zM334 248q0 -12 17.5 -25.5t21.5 -13.5l104 -25q8 -2 8 11v12q0 63 -14 125.5t-27 124.5q-16 86 -27 172t-28 172q-10 59 -27.5 133t-19.5 139l-8 8v-833zM748 174q10 0 35.5 5t52 14.5t47 21.5t20.5 25v258q-10 31 -10 63 v60v61q0 33 10 63v385q-4 0 -16.5 -63t-29.5 -159.5t-36.5 -213t-36 -223t-26.5 -188.5t-10 -109z" />
<glyph unicode="N" d="M20 109q0 -35 24 -58.5t56 -34.5q12 0 42 -2t63 -3t62.5 -2t41.5 -1h31q78 0 148 10q50 8 106 8q21 0 43 -1q41 10 53 41.5t12 64.5v29l-32 33q-2 2 -13.5 6t-27 9t-31.5 10t-25 7h-20q-18 0 -31.5 -9t-32.5 -9q-14 0 -36.5 16.5t-22.5 32.5v209q8 23 8 41v43v41 q0 20 -8 43v409h8l24 -53q23 -53 57 -127t69 -153.5t57 -130.5q27 -59 46 -119t50 -115l80 -256q10 -35 45 -61.5t72 -26.5q41 0 75 30.5t34 73.5l-5 666v39l-4 457l9 8h47t52 3t48 13t37 33q0 4 1 18.5t1 18.5q0 66 -49 95.5t-111 29.5q-20 0 -33.5 -2t-33.5 -13h-312 q-29 0 -47 -21.5t-18 -45.5q0 -43 20.5 -67.5t52 -38t68.5 -17.5t68 -6l20 -14v-578q4 -4 8 -20.5t4 -20.5v-35t-1 -51.5t-2 -51t-1 -34.5q-2 0 -2 -4q0 -2 -2 0t-8 11t-8 13q-45 92 -85 194.5t-75 190.5q0 2 -3 10.5t-5 17.5t-5 17.5t-3 10.5q-2 6 -14.5 30.5t-26 53 t-25.5 53.5t-14 31q-4 10 -18.5 49t-30 84t-29.5 83t-18 48q-12 35 -42 69.5t-71 34.5h-231q-49 0 -82 -30.5t-33 -75.5q0 -10 2 -25.5t7 -29t14.5 -22.5t25.5 -9h145l17 -14q0 -211 8 -419t8 -417q0 -43 -6 -83q-4 -24 -4 -50q0 -17 2 -35l-16 -16q-8 0 -28 -1t-41.5 -2 t-40.5 -2.5t-28 -1.5q-37 -4 -54 -39.5t-26 -64.5v-20z" />
<glyph unicode="O" horiz-adv-x="1112" d="M20 569q0 -2 3.5 -14t6.5 -27.5t7 -31t8 -23.5q12 -39 34.5 -90t52.5 -103.5t64.5 -97.5t71.5 -69q4 -4 21.5 -12.5t36 -17.5t35 -17.5t20.5 -10.5q45 -23 83 -39t91 -16q31 0 49.5 5t33.5 13.5t31.5 17.5t41.5 19q111 43 183.5 124t115.5 182.5t60 215t17 222.5 q0 111 -28.5 215t-75.5 207q-31 31 -51.5 68.5t-44.5 74.5q-12 18 -34 30.5t-38 24.5q-35 27 -66.5 48.5t-64.5 36t-67.5 22.5t-77.5 8q-102 0 -180 -42t-135.5 -109.5t-96.5 -152.5t-66 -171q-4 -14 -11 -40t-13 -51.5t-11.5 -46t-5.5 -22.5v-330zM197 770q0 68 21.5 166 t64.5 188t108.5 153.5t155.5 63.5q57 0 92 -27.5t80 -62.5q47 -37 75.5 -76.5t47 -82.5t30 -91.5t23.5 -101.5v-264q0 -35 -11.5 -55.5t-21.5 -49.5q-10 -37 -28.5 -87t-47 -94t-67.5 -75.5t-88 -31.5h-201q-23 0 -51.5 26.5t-56 61.5t-49 71.5t-27.5 55.5q-25 74 -37 154.5 t-12 158.5z" />
<glyph unicode="P" horiz-adv-x="1183" d="M20 125q0 -57 39 -91t95 -34q41 0 80.5 11.5t74.5 29.5h248q37 -10 61.5 -14t57.5 -4q35 0 68.5 18t54.5 47v37q0 14 -5.5 34.5t-15.5 37t-24.5 29t-34.5 12.5h-209l-3 4t-5 6l-8 16v201q6 25 9 52.5t7 51.5l8 9h297q51 0 111.5 36.5t112 92t86 118t34.5 113.5v168 q0 20 -14.5 60t-34.5 83t-44 79t-42 52q-35 29 -76 49.5t-86 30.5q-10 2 -28.5 6t-36 7.5t-31.5 6.5t-16 3h-344q-20 -4 -32 -6t-28 -2q-39 0 -73.5 5t-75.5 5h-17h-26t-26.5 -1t-18.5 -1q-20 0 -34 -11.5t-23 -26.5t-13 -34.5t-4 -34.5q0 -47 25.5 -77.5t76.5 -30.5 q29 0 54.5 4t54.5 4h47q14 -2 21.5 -16.5t11.5 -24.5v-68q0 -86 -7.5 -165.5t-9.5 -167.5v-578l-16 -18h-209q-20 0 -32.5 -12.5t-19.5 -30t-9.5 -37t-2.5 -33.5zM492 1206q0 10 1 34t1 28l8 8h67q66 0 138.5 -4t134 -26.5t101.5 -71t40 -136.5q0 -92 -34 -145t-88 -81 t-124.5 -36t-144.5 -8q-14 0 -42 1t-32 1l-12 8v297q-15 25 -15 63z" />
<glyph unicode="Q" horiz-adv-x="1142" d="M20 569l56 -239q0 -2 7 -15.5t16.5 -31t18.5 -36t15 -30.5q31 -59 80 -106.5t108.5 -80t126 -51t134.5 -18.5l8 -8q2 -61 18.5 -127t48 -120t84 -88t125.5 -34q76 0 125 40t78 99.5t40 129t11 129.5q0 10 -1 41.5t-1 42.5q-4 29 -21.5 62.5t-52.5 33.5q-43 0 -63 -28 t-27.5 -68.5t-8.5 -88t-7 -88.5t-23.5 -68.5t-56.5 -27.5q-29 0 -45 26.5t-25.5 62.5t-11.5 73t-2 55q0 20 2 29.5t6 13.5t13.5 9.5t25.5 19.5q4 2 15.5 12t22.5 21.5t21.5 23t14.5 15.5q68 111 99.5 225.5t60.5 238.5v248q-12 49 -19.5 96.5t-21.5 96.5q-4 16 -14.5 28.5 t-16.5 26.5q-31 70 -72 144.5t-106 121.5q-4 2 -18.5 10.5t-32 17.5t-32.5 17.5t-20 10.5q-41 23 -82.5 36t-91.5 13q-92 0 -167.5 -39t-134 -102.5t-99.5 -142.5t-66 -159q-4 -14 -11 -42.5t-13 -59.5t-11.5 -56.5t-5.5 -33.5v-281zM197 569v297q16 68 30.5 126.5t39 108.5 t64.5 92t105 75q4 2 13.5 5t11.5 3h153q27 0 62 -27.5t66.5 -66.5t56 -78t30.5 -62l50 -176v-231q-23 -92 -42.5 -173t-70.5 -165q-2 -2 -7 -8t-9 -8h-5h-4q-14 23 -19 49t-20 47q-39 53 -89.5 95t-120.5 42q-47 0 -98.5 -15.5t-92.5 -39.5q-4 -4 -20.5 -17.5t-20.5 -15.5 l-3 -1t-5 -1l-6 2q-20 29 -34.5 69t-14.5 74zM340 270q0 8 9 21.5t22.5 26t27 20.5t23.5 8h88q2 0 23.5 -21.5t31.5 -35.5q14 -16 19.5 -40t5.5 -44q0 -31 -22.5 -38t-47.5 -7q-20 0 -51 7t-59.5 21.5t-49 34.5t-20.5 47z" />
<glyph unicode="R" d="M20 133q0 -18 7.5 -38.5t20.5 -39t30.5 -30t38.5 -9.5q18 0 63 -2t96.5 -3t97.5 -2t64 -1h23q25 0 54.5 3t55 13.5t43 29t17.5 50.5q0 51 -37 75t-80 36t-80 21.5t-37 27.5v385l9 8q2 2 26.5 5.5t36.5 3.5h76h45q20 0 39.5 -1t40 -5.5t49.5 -10.5q23 -16 36 -45t27 -51 q29 -49 46.5 -104.5t25.5 -114t9 -116.5v-39q0 -38 -1 -75q8 -49 40 -69.5t73 -25.5q34 -4 71 -4h15h13q38 0 69 -5h4q41 0 63.5 33t22.5 67q0 27 -4 37t-23 39q-14 25 -34.5 35t-41 16t-41 14.5t-34.5 30.5q-16 25 -17.5 65t-7.5 64q-16 68 -39.5 147t-64.5 142v19 q0 25 12 42t30.5 31.5t38 28.5t31.5 31q37 47 47.5 111.5t10.5 121.5q0 133 -53.5 214t-139.5 124t-193.5 57.5t-213.5 14.5q-23 0 -41.5 -1t-40.5 -14h-314q-39 0 -55 -31.5t-16 -64.5q0 -20 6 -48t33 -36l129 -30l16 -17l12 -481v-41l4 -457q0 -4 -6 -12t-10 -12 q-31 0 -64.5 -2t-62.5 -12.5t-47.5 -32t-18.5 -60.5zM397 891v352q0 16 18.5 22.5t28.5 8.5t37 2h37q86 0 172 -11.5t164 -45.5q41 -31 53.5 -77t12.5 -93q0 -80 -48.5 -128.5t-121.5 -70.5h-68q-33 0 -61.5 4t-59.5 4q-25 0 -49.5 -4t-50.5 -4h-47q-4 6 -10.5 20.5 t-6.5 20.5z" />
<glyph unicode="S" horiz-adv-x="1030" d="M20 1079q0 -92 36 -159.5t94.5 -115.5t135 -76t158.5 -38q51 -6 99.5 -7t92.5 -8t83 -28.5t69 -68.5q6 -8 15.5 -25.5t9.5 -22.5v-143q-10 -18 -18.5 -40.5t-19.5 -43t-26.5 -38t-39.5 -23.5q-29 -8 -54.5 -11.5t-48.5 -19.5h-153q-14 8 -22.5 11t-18 5t-19.5 5.5 t-28 9.5q-47 18 -83 60t-53 91q-8 29 -10 69t-10 76.5t-26.5 62.5t-61.5 26q-35 0 -59.5 -21.5t-24.5 -58.5v-473q0 -37 28.5 -62.5t63.5 -25.5q31 0 45 15t22.5 32.5t17.5 33t30 15.5q31 0 57.5 -12.5t52 -27.5t52 -27.5t55.5 -12.5h201q35 0 60.5 19.5t51.5 35.5 q2 2 13.5 7.5t25.5 12.5t25.5 13t15.5 8q43 31 71.5 74t46 93t26 103.5t8.5 102.5q0 63 -16.5 113.5t-46.5 91.5t-69.5 78t-85.5 73q-2 2 -7 4.5t-7 4.5q-49 12 -103.5 23t-105.5 15q-66 6 -132 10.5t-119.5 23t-86 61.5t-32.5 129q0 45 20.5 83t54 66.5t75.5 45t87 16.5 q68 0 137.5 -29t124.5 -70q27 -20 36 -62t16.5 -85t24.5 -76t63 -33q31 0 53 25t21 55v377q0 39 -21 77t-62 38q-23 0 -39 -12.5t-26 -31t-16.5 -40t-10.5 -39.5h-8q-25 0 -58.5 23.5t-54.5 33.5q-10 4 -34.5 13.5t-52 19.5t-53.5 18.5t-36 12.5h-18q-35 0 -79 -15.5 t-88 -39t-82 -52t-60 -53.5q-23 -41 -39.5 -74t-26.5 -65.5t-16.5 -67.5t-6.5 -78z" />
<glyph unicode="T" horiz-adv-x="1062" d="M20 969q0 -37 20.5 -76t61.5 -39q51 0 72 27.5t25 69.5q3 34 3 73v20v10q0 47 9 90q10 48 40 88t97 56q4 2 19.5 3t21.5 1q4 0 16.5 -1t16.5 -3l8 -8v-1018l-24 -26h-193q-18 0 -29.5 -12.5t-17.5 -30t-8 -36t-2 -30.5q0 -25 23.5 -46.5t57 -35.5t67.5 -22.5t56 -8.5 q66 0 125.5 20.5t124.5 20.5q39 0 75 -13t75 -13q27 0 52.5 5t46 16t32.5 30.5t12 48.5q0 49 -27.5 73.5t-67.5 36t-85 13.5t-78 2l-16 16l-11 658v41l-4 200q8 29 11.5 66t3.5 61l8 9q2 0 14.5 1t16.5 1q29 0 60.5 -8.5t59 -26t45 -43t17.5 -60.5v-217q0 -37 30.5 -67.5 t65.5 -30.5q43 0 67.5 37t24.5 78v407q0 39 -31.5 74t-72.5 35h-457q-18 10 -30.5 11t-28.5 1q-18 0 -29.5 -1t-32.5 -11h-247q-18 0 -34 -14.5t-28 -34t-19.5 -40t-7.5 -34.5v-393z" />
<glyph unicode="U" d="M20 1380q0 -23 6.5 -49t34.5 -35l132 -34v-895q18 -41 29 -90.5t38 -86.5q61 -86 151.5 -136t198.5 -50q74 0 143.5 24.5t133.5 65.5q49 37 85 101.5t58 123.5q12 31 14.5 64t14.5 63v619q10 20 11 35.5t1 38.5q0 29 -4 53.5t-4 50.5v21q0 12 16 16q25 2 51.5 4t49 10.5 t37 26.5t14.5 51q0 51 -37 82t-84 35h-18q-12 0 -26.5 1t-29.5 1h-18q-37 0 -72 -5t-72 -5q-18 0 -35.5 4t-37.5 4q-41 0 -71 -24.5t-30 -67.5q0 -31 15.5 -51.5t38 -34t49 -20.5t51.5 -11q14 -6 19.5 -21.5t5.5 -29.5v-4q-2 -6 -4.5 -24.5t-4.5 -22.5q1 -74 1 -152 q0 -116 -2 -240q-3 -206 -7 -387q-6 -25 -24.5 -57.5t-45 -60t-56 -47t-58.5 -19.5h-143q-20 0 -46 22.5t-49.5 52t-39 60.5t-15.5 49v473q-14 23 -13 56t1 57q0 18 1 66.5t3 97.5t7 88t13 43q29 2 59.5 5t55.5 13.5t40 32t15 58.5q0 41 -27.5 70.5t-70.5 29.5h-360 q-45 0 -67 -34t-22 -75z" />
<glyph unicode="V" horiz-adv-x="1230" d="M20 1397q0 33 23 62.5t57 30.5h361q41 0 65.5 -32.5t24.5 -68.5q0 -35 -13.5 -53.5t-34 -29t-46 -15.5t-51.5 -11q-8 0 -9 -8l109 -416v-57l100 -383q4 -14 15 -25q10 4 17 19.5t7 19.5l113 449q4 76 23.5 146.5t39.5 141.5q10 35 13.5 47.5t3.5 38.5q0 4 1 14.5 t-10 12.5q-53 0 -95 36t-42 89q0 35 22.5 59.5t59.5 25.5h264q25 0 53.5 -6.5t54 -20t43 -34t17.5 -49.5q0 -33 -12 -52t-31.5 -28.5t-46 -13.5t-53.5 -6q-29 -23 -41 -55q-33 -135 -62.5 -265.5t-66.5 -265.5q-14 -53 -25.5 -113.5t-38.5 -109.5l-79 -377q-8 -31 -44 -59.5 t-73 -28.5q-35 0 -72 21.5t-59 50.5q-16 20 -24.5 44.5t-11.5 51.5t-5 53.5t-8 51.5q-23 117 -57 228t-62 228q-10 37 -12.5 76t-12.5 76q0 4 -5 19.5t-11 32.5t-11.5 32.5t-5.5 19.5q-2 8 -9 40t-14 69t-14.5 68.5t-9.5 39.5q-6 23 -12 42.5t-29 29.5q-31 2 -60.5 6 t-54 15.5t-39 34t-14.5 61.5z" />
<glyph unicode="W" horiz-adv-x="1239" d="M18 1384q0 -31 11.5 -49t27 -34.5t30.5 -37t22 -55.5q37 -201 73.5 -400.5t69.5 -399.5q6 -35 10 -85.5t10.5 -101.5t16.5 -98t28 -76q16 -27 36 -34t48 -7q37 0 57.5 11.5t32 32t16.5 46t11 54.5q33 168 52.5 336.5t43.5 336.5q2 16 7.5 40t7.5 24h8q2 0 7 -23.5 t9 -40.5q16 -86 28.5 -175t20.5 -177q0 -6 1.5 -27.5t2.5 -48t3 -48t2 -28.5q2 -23 4 -62.5t7 -80.5t14 -77t22 -52q31 -41 76 -41q37 0 65.5 38t48 96.5t33.5 131t25.5 143t20.5 131t20 93.5q2 6 5 19.5t7 28.5t7 28.5t5 19.5q27 127 43 253t45 253q4 20 13.5 35.5t18.5 31 t16 33t7 39.5q0 37 -16 62.5t-55 30.5q-33 4 -74 10t-76 6q-43 0 -75.5 -23.5t-32.5 -70.5q0 -33 10 -46.5t23.5 -20.5t29 -14t27.5 -26v-59q0 -51 -9.5 -98.5t-15.5 -98.5q-16 -131 -36.5 -257t-51.5 -257h-4q-6 0 -15 47t-20.5 119t-23 157t-20.5 161.5t-15 134t-6 71.5 v56q2 14 14 23t25.5 20.5t23.5 29t10 49.5q0 47 -35.5 68t-84.5 27q-42 5 -85 5h-14h-20q-37 0 -60 3h-4q-43 0 -71.5 -29.5t-28.5 -70.5q0 -25 7 -40.5t19.5 -26.5t27 -22.5t28.5 -27.5v-60v-59q0 -4 -4 -22.5t-8 -38t-8.5 -38t-4.5 -22.5q-10 -86 -18 -172t-23 -172 q-2 -18 -7 -46t-10 -53.5t-9 -44.5l-4 -18h-8q-16 123 -41 246t-48 244q-10 55 -25.5 105t-15.5 108v43q8 14 25.5 20t33 15.5t28 25t12.5 47.5q0 35 -22.5 56.5t-54.5 33t-67.5 15.5t-62.5 4q-29 0 -55.5 -3t-48 -14.5t-34 -32t-12.5 -55.5z" />
<glyph unicode="X" horiz-adv-x="1239" d="M20 133q0 -66 51.5 -96.5t112.5 -30.5h4q4 0 19.5 4t33 8.5t33 8.5t19.5 4q6 0 33.5 1t58.5 3t58.5 3t33.5 1q35 2 53.5 24.5t18.5 55.5q0 31 -16.5 48t-36 30.5t-36 29t-16.5 39.5v21q41 80 81 149.5t81 155.5q2 8 8 8h13q14 0 30.5 -24.5t29.5 -56.5t23.5 -62.5 t14.5 -40.5q16 -37 37.5 -75t44.5 -71v-8q0 -18 -18.5 -29.5t-40 -24.5t-39 -31.5t-17.5 -53.5q0 -47 37 -61.5t78 -22.5q70 -2 138.5 -9t137.5 -7q53 0 92 26.5t39 81.5q0 49 -17 65.5t-44 19.5t-57.5 4t-57.5 18q-8 4 -33.5 45t-61.5 100t-76 127t-73.5 129t-55 106.5 t-21.5 55.5q0 18 8 36.5t20.5 38t24.5 37t21 31.5q2 2 9 15.5t14 29t14.5 27.5t9.5 16q14 25 30.5 61.5t35 72.5t38 67t41.5 47q31 0 69 1t70.5 10t55 30.5t22.5 67.5q0 35 -13 54t-33.5 29.5t-48.5 13.5t-54 3q-35 0 -65 -4t-64 -4q-31 0 -59.5 4t-61.5 4q-25 0 -49.5 -2 t-45 -10.5t-32.5 -25.5t-12 -48q0 -35 15 -52.5t32.5 -30.5t33 -26.5t15.5 -38.5q0 -16 -15.5 -56t-37 -83t-44 -75.5t-36.5 -32.5q-12 0 -35 31.5t-44.5 73.5t-37.5 81t-16 55q0 20 14 31.5t30.5 23t31 28t14.5 50.5q0 23 -6.5 49.5t-34.5 32.5l-97 25h-327 q-43 0 -62.5 -28.5t-19.5 -65.5q0 -49 22.5 -73t57.5 -33t75 -9h78q25 -10 42.5 -35.5t29.5 -56.5t23.5 -62.5t25.5 -54.5q2 -4 10.5 -16.5t17.5 -26.5t17 -27.5t10 -17.5q4 -6 13.5 -22.5t19.5 -35t19.5 -36t13.5 -25.5q8 -16 8 -26v-27q0 -29 -21.5 -77t-52 -98t-61.5 -95 t-49 -70q-25 -33 -34 -75t-32 -77q-4 -6 -13 -21t-21.5 -29.5t-26.5 -26t-27 -11.5h-96q-18 0 -29.5 -10t-19.5 -25.5t-11.5 -33t-3.5 -29.5z" />
<glyph unicode="Y" d="M20 1358q0 -37 19.5 -56.5t47.5 -26.5t59.5 -8t58.5 -1q20 -16 33.5 -38t23.5 -46.5t21.5 -49t25.5 -45.5q2 -2 12.5 -14t12.5 -16q20 -47 32.5 -92t47.5 -84l127 -281v-377l-6 -8q-4 0 -25 -1t-31 -1q-35 0 -64.5 5t-62.5 5q-41 0 -74.5 -31.5t-33.5 -72.5 q0 -47 36.5 -80t84.5 -33h266l39 12h280q39 0 60.5 37t21.5 70q0 41 -39 59.5t-75 22.5q-10 0 -34 2t-50.5 3t-50 2t-33.5 1l-9 8l-16 80v297q0 2 3 10t5 13q63 131 125 261t125 261q4 10 13.5 27.5t17.5 36t15 31.5t9 17q4 4 12.5 13.5t12.5 9.5h113q14 0 25 9t17.5 22.5 t9.5 28t3 26.5q0 31 -15.5 53.5t-40 38t-53 23.5t-55.5 8q-31 0 -59.5 -4t-61.5 -4q-35 0 -64.5 4t-64.5 4q-41 0 -70.5 -19.5t-29.5 -64.5q0 -37 12 -53.5t30.5 -27.5t38 -21.5t31.5 -30.5q2 -4 2 -15v-12q0 -29 -9 -53.5t-21.5 -48t-26.5 -47t-24 -47.5q-2 -4 -6.5 -16.5 t-9.5 -28t-10 -28.5t-5 -15q-4 -6 -11.5 -22.5t-16.5 -35t-17 -34t-12 -21.5q-2 -8 -11 -8h-10q-12 0 -22.5 10t-18.5 23.5t-14 29t-13 25.5l-120 241q-4 8 -15.5 39t-15.5 41l-1 3t-1 5q0 16 19.5 22.5t42 15t42 25.5t19.5 54q0 49 -29 71.5t-70 30.5q-32 5 -67 5h-18 q-22 -1 -40.5 -1t-33.5 1q-4 0 -19.5 4t-19.5 4h-13q-33 0 -69.5 -5t-68.5 -19.5t-53.5 -40t-21.5 -66.5z" />
<glyph unicode="Z" horiz-adv-x="1095" d="M20 123q0 -43 23 -66.5t55.5 -35t70.5 -14.5t71 -3q25 0 48 1t46 13h633q33 0 68.5 29t35.5 64v409q0 37 -21.5 71t-62.5 34t-59.5 -22.5t-26.5 -58.5t-10 -80t-7 -87t-17.5 -80t-43.5 -57q-8 -6 -26.5 -15.5t-22.5 -9.5h-432q-16 0 -21.5 11.5t-5.5 21.5q0 12 23.5 50 t54.5 84t60.5 87t40.5 59q2 2 6 10.5t10 17.5t10 17.5t6 10.5q43 66 95.5 125t97.5 122q35 49 57.5 106.5t63.5 102.5q25 31 60.5 72t68 88t56.5 96.5t24 92.5q0 39 -22.5 59t-59.5 27h-70t-106.5 1t-125 2t-125 2t-106.5 2t-69 1h-37q-49 0 -74 -11.5t-37 -34t-17 -54 t-12 -70.5q0 -4 -4 -21.5t-8 -37t-7 -38t-3 -22.5q0 -2 -1 -14.5t-1 -28.5v-33v-24v-21v-31q0 -16 1 -29.5t1 -19.5q4 -33 22.5 -57.5t53.5 -24.5q53 0 70.5 44t23.5 101.5t15 114t46 78.5q6 4 15.5 9.5t19.5 10.5t18.5 9t10.5 4h305q12 0 15 -10t3 -19q0 -16 -33.5 -67 t-76.5 -109.5t-84 -113t-55 -74.5q-35 -49 -66 -100.5t-63 -100.5q-43 -68 -93.5 -131t-91.5 -133q-18 -33 -52 -69t-66.5 -74.5t-57.5 -78.5t-25 -79z" />
<glyph unicode="[" horiz-adv-x="1024" d="M289 -84q0 -35 10 -46t27 -11q10 0 21 2t24 4q2 2 8 2q10 2 21.5 4t19.5 2t23.5 -2t33.5 -6q10 0 21.5 -2t23.5 -2q8 -2 17 -2h16q33 0 59.5 11t26.5 46q0 45 -17.5 62.5t-39.5 17.5q-20 0 -43 -8h-4q-10 -2 -21.5 -4t-19.5 -2q-18 0 -32.5 15t-14.5 50v1167q0 55 45 56 q10 0 21 -2t26 -4h4q14 -4 27.5 -6.5t21.5 -2.5q20 0 33.5 14.5t13.5 47.5q0 43 -26.5 58.5t-59.5 15.5h-14t-15 -2q-10 0 -20 -2.5t-21 -4.5q-16 -2 -29.5 -5t-21.5 -3t-20.5 2t-26.5 4q-2 0 -4 1t-4 1q-12 2 -23.5 3t-19.5 1q-18 0 -32.5 -7.5t-14.5 -30.5v-1432z" />
<glyph unicode="\" horiz-adv-x="1175" d="M20 1763q49 -111 113 -218t121 -214q2 -4 7 -12t7 -12l209 -408l17 -25l225 -440q16 -23 24.5 -48.5t22.5 -47.5q33 -55 64.5 -114.5t56.5 -119.5q18 -45 35.5 -93t52.5 -83q16 -16 41 -16h43h18t30.5 1t30 6t13.5 18v55q-2 2 -9 21.5t-19.5 47t-18.5 43.5 q-29 61 -66 119t-71 115q-25 39 -41.5 83t-38.5 85q-63 104 -113.5 217t-103.5 223q-88 184 -190.5 358.5t-194.5 356.5q-4 8 -13.5 27.5t-19.5 43t-19.5 44t-11.5 28.5q-25 41 -67 41q-16 0 -39 -2t-44.5 -8t-36 -19.5t-14.5 -35.5v-17z" />
<glyph unicode="`" horiz-adv-x="436" d="M18 1421q0 -59 62 -59q43 0 74.5 23.5t66.5 41.5q25 14 57.5 26.5t62.5 28t50.5 39t20.5 58.5q0 37 -21.5 62.5t-62.5 25.5q-25 0 -45.5 -9t-39 -23.5t-36 -29t-35.5 -26.5q-2 -2 -13.5 -7t-23.5 -12.5t-22.5 -12.5t-12.5 -7l-11 -11t-21.5 -20.5t-22.5 -22.5t-16 -18 q-10 -10 -11 -24v-23z" />
<glyph unicode="a" horiz-adv-x="1142" d="M20 330q0 -96 38 -169t122 -122q16 -10 32.5 -21.5t39.5 -11.5h184q35 0 68 13.5t63.5 33t60 40t58.5 34.5h10q14 0 25.5 -10.5t21 -23.5t18.5 -26.5t21 -19.5q35 -23 63.5 -32t67.5 -9q49 0 87 22.5t64 58.5t40 81t14 90q0 20 -4 42t-14 40t-26.5 30.5t-39.5 12.5 q-43 0 -56 -28.5t-19.5 -64.5t-14.5 -64.5t-41 -28.5q-49 0 -49 57v346q10 25 9 56.5t-1 56.5v63q0 6 -3 21.5t-7 33t-8 34t-6 22.5q-6 25 -32 59.5t-59.5 65t-69.5 53t-63 22.5h-313q-33 0 -57.5 -19t-46.5 -36q-27 -18 -53.5 -39.5t-47 -46t-33 -53.5t-12.5 -66 q0 -63 42 -106t108 -43q43 0 68.5 17.5t39 43t19.5 56t11 56.5t11 43t23 17h192q2 0 26.5 -12t37.5 -18q33 -18 45 -49t12 -66q0 -49 -49 -65.5t-123 -22.5t-161 -13.5t-160.5 -39t-123 -100t-49.5 -195.5zM180 332q0 23 15.5 53.5t25.5 44.5q20 31 47 33q51 8 101.5 12 t99.5 12q6 0 33.5 5.5t58.5 10.5t58.5 10t33.5 5l4 2q2 0 3 -1l2 -1q2 0 8 -3t8 -3v-25q0 -88 -26.5 -143t-102.5 -106q-4 -2 -19.5 -10.5t-19.5 -12.5q-8 -4 -19.5 -10t-13.5 -6h-209q-20 0 -36.5 14t-27.5 35.5t-17.5 44.5t-6.5 39z" />
<glyph unicode="b" horiz-adv-x="1167" d="M20 1360q0 -33 18.5 -52.5t46.5 -30.5t59.5 -14t56.5 -3q2 0 3 1l1 1q4 0 24.5 3t24.5 3l5 -2t9 -4t8 -6l5 -3v-850q10 -20 11 -33.5t1 -33.5q0 -53 -12.5 -105.5t-12.5 -105.5q0 -43 18.5 -76t65.5 -33q37 0 51.5 13.5t40.5 44.5q4 0 9.5 1t7.5 1q25 0 38 -16.5 t36 -24.5q41 -16 84 -28.5t88 -12.5q82 0 149.5 31.5t118.5 84t87 120t56 141.5q2 10 7 25.5t8.5 30.5t6.5 27l3 13v217q0 2 -3 14.5t-5 16.5q-16 53 -33 94t-39.5 77t-51 69.5t-69.5 72.5q-20 18 -41.5 41t-54.5 23h-201q-25 0 -45 -13.5t-39.5 -31t-39 -30.5t-44.5 -13 q-6 0 -13 3t-7 13v352q0 18 -10.5 35.5t-27 31t-34.5 21.5t-35 8h-250q-8 0 -16 -8q-4 -2 -11 -10t-16.5 -17.5l-17.5 -17.5l-10 -10q-10 -10 -10 -20zM461 418v217q0 25 17.5 70t45 88t59 74.5t62.5 31.5h154q18 0 36.5 -11t35 -28.5t28.5 -35t19 -29.5q39 -63 48 -117.5 t9 -128.5q0 -84 -18.5 -148.5t-77.5 -126.5q-10 -10 -27.5 -28.5t-30 -29.5t-14.5 -13h-201q-12 0 -29.5 17.5t-35 41t-30.5 45t-17 31.5q-4 12 -12.5 31.5t-14.5 33t-6 15.5z" />
<glyph unicode="c" horiz-adv-x="903" d="M18 532q0 -94 36 -188t99.5 -169t149.5 -122t186 -47q68 0 137.5 28.5t126 77t92.5 112t36 134.5q0 35 -16.5 63t-53.5 28q-25 0 -43 -17.5t-34.5 -43.5t-32 -56.5t-35 -56t-44 -43t-57.5 -17.5h-176q-4 0 -18.5 9t-20.5 15.5t-21.5 20.5t-31.5 30.5t-30.5 32t-20.5 21.5 q-29 43 -39 105.5t-10 113.5q0 57 8 110.5t28.5 98.5t56.5 81t91 60q10 4 27.5 9.5t21.5 5.5h135q10 0 24.5 -14.5l16.5 -16.5v-33q0 -29 -8 -50t-8 -48q0 -61 43 -106.5t106 -45.5q35 0 60.5 15.5t43 40t27 56.5t9.5 62q0 47 -18.5 89.5t-48.5 78t-65.5 66.5t-68.5 59 q-8 2 -30.5 9.5t-48.5 13.5t-49.5 11t-31.5 5q-2 2 -20 2h-27q-115 0 -200 -54t-141 -139t-84 -191t-28 -206z" />
<glyph unicode="d" horiz-adv-x="1150" d="M20 416q0 -4 3.5 -17.5t8.5 -27t9 -24.5t4 -13q25 -68 67 -127.5t96 -103.5t120.5 -70.5t142.5 -26.5q51 0 89 18.5t85 45.5q14 8 20.5 14t9.5 10t8 7t15 3q2 0 6.5 -1t6.5 -1q45 -53 95 -67.5t120 -14.5q31 0 66.5 3.5t66.5 15.5t50 36.5t19 65.5q0 37 -27.5 53.5 t-64.5 21.5q-23 3 -46 3q-14 0 -28 -1q-38 -3 -59 -3l-20 16v465l-17 39v633q0 16 -8 34.5t-21.5 34t-29.5 26t-33 11.5h-248q-29 0 -47 -18t-18 -47q0 -59 38 -79.5t83 -26t82.5 -9.5t37.5 -30v-191l-16 -49l-5 -1q-5 -1 -7 -1q-29 0 -41 13.5t-35 29.5q-39 25 -84 33 t-88 8q-18 0 -39.5 -1t-44.5 -4t-42 -9.5t-32 -18.5l-168 -170l-3 -6t-5 -8q-2 -6 -9 -28.5t-14.5 -49.5t-14.5 -48.5t-9 -27.5q-4 -10 -14.5 -33.5t-10.5 -37.5v-248zM197 571q0 51 11 115t38.5 117t74 90t113.5 37q70 0 121 -37t84 -92.5t48 -121t15 -124.5 q0 -49 -14 -111.5t-44 -117t-74 -92t-103 -37.5q-74 0 -126 34.5t-84 90t-46 122t-14 127.5z" />
<glyph unicode="e" horiz-adv-x="942" d="M20 504q0 -100 31 -191.5t88.5 -161t141.5 -110.5t188 -41q106 0 206.5 39t162.5 129q25 37 45 75t20 85q0 29 -19.5 47t-49.5 18q-33 0 -55.5 -16.5t-42 -41t-37 -51t-37.5 -44.5q-27 -23 -64 -32t-66 -32q-6 0 -27.5 -1t-27.5 -1q-61 0 -112.5 23.5t-89 63.5t-59 93.5 t-21.5 112.5q0 4 1 16.5t1 14.5l8 6l23 2q22 2 52.5 3t62.5 2t54 1q23 0 81.5 1t121.5 1q66 0 124 -1t81 -1q33 6 63.5 16.5t49.5 40.5q0 4 1 17.5t1 17.5q0 18 -8.5 56t-19.5 78t-24.5 74t-21.5 46q-78 98 -168 160.5t-221 62.5q-23 0 -47 1h-4q-21 0 -41 -9 q-6 -2 -21.5 -9t-34 -16.5t-35 -17.5t-22.5 -12q-68 -37 -112 -95.5t-70.5 -127t-38 -144t-11.5 -147.5zM213 680v12q0 51 24.5 89t61.5 62.5t82 36t88 11.5q39 0 83 -9.5t81 -28.5t61.5 -53t24.5 -83v-15q0 -10 -2 -14q-4 -4 -11.5 -9t-11.5 -5h-473q-8 0 -8 6z" />
<glyph unicode="f" horiz-adv-x="1087" d="M20 98q0 -29 18.5 -56.5t53.5 -27.5h610q35 0 50.5 28t15.5 56q0 16 -5 37t-15.5 38t-25.5 29.5t-36 12.5h-192v666l8 8h35q29 0 53 -4t53 -4q47 0 86 25.5t39 76.5q0 39 -15.5 58.5t-40 27.5t-55 9t-59.5 3q-10 0 -26.5 1t-32 2t-26.5 4l-11 2l-8 8q0 2 -1 14t-1 16 q0 39 17 73t45 56.5t64.5 36t73.5 13.5q31 0 50.5 -5.5t48.5 -27.5q-4 -31 -4 -69q0 -4 1 -9q0 -43 12.5 -81t39 -64.5t75.5 -26.5q37 0 65 15.5t46 42t27.5 58t9.5 66.5q0 74 -39 126t-98.5 86t-129 49.5t-130.5 15.5h-4q-25 -6 -62 -11.5t-65 -21.5q-4 -2 -13.5 -8 t-11.5 -8q-55 -33 -88 -64t-53.5 -65.5t-32.5 -78.5t-27 -106l-16 -14q-31 0 -76 2h-20q-34 0 -65 -5q-40 -7 -68.5 -28.5t-28.5 -68.5q0 -4 1 -18.5t1 -18.5q31 -37 55.5 -55.5t69.5 -18.5q31 0 55.5 13.5t50.5 13.5q12 0 26.5 -9.5t14.5 -23.5v-658l-8 -8l-10 -3t-22.5 -5 t-26 -5t-21.5 -3h-20q-18 0 -36 4t-36 4q-53 0 -81 -33t-28 -84z" />
<glyph unicode="g" horiz-adv-x="1118" d="M20 -94q0 -94 46.5 -150.5t130.5 -85.5q16 -4 27.5 -15t27.5 -17q86 -31 168 -39.5t174 -8.5q82 0 167 17.5t154.5 57.5t112.5 106.5t43 165.5q0 39 -10 69.5t-28.5 56t-43 48t-55.5 49.5q-14 12 -20.5 18t-10.5 10.5t-11 8.5t-22 10q-35 12 -82 12q-45 0 -71 4 q-4 0 -21.5 4t-38 8.5t-38 8.5t-21.5 4h-72q-72 0 -139.5 -20.5t-138.5 -20.5q-10 0 -20.5 8t-14.5 16v29q0 33 13.5 58.5t52.5 25.5q33 0 61.5 -9t56 -19.5t56 -19.5t61.5 -9q25 0 40 3t28.5 9t28 13t34.5 16q53 20 91 56t62.5 82t36 99t11.5 109q0 51 -14.5 97t-14.5 97 q12 0 23.5 -20.5t28 -46t43 -46t71.5 -20.5q63 0 88 46t25 104q0 45 -21.5 82t-55.5 62.5t-77 38.5t-84 13q-80 0 -141 -57h-39q-29 0 -55.5 9t-52 19.5t-52 19.5t-53.5 9q-6 0 -18.5 -3t-24.5 -7t-23.5 -8t-17.5 -6q-117 -51 -183.5 -147.5t-66.5 -225.5q0 -47 13.5 -90 t13.5 -90v-12t-2 -13q-49 -47 -81 -99t-32 -122q0 -23 8 -44t17.5 -41.5t17.5 -41t8 -41.5l-2 -10q-35 -39 -53.5 -78t-18.5 -96zM197 -70q0 51 33.5 79t81.5 42.5t101.5 17.5t92.5 3q29 0 95.5 -4.5t135 -19.5t120.5 -44t52 -78q0 -31 -20.5 -53.5t-49 -38.5t-60 -26.5 t-54.5 -16.5q-59 -4 -128 -6t-134 -2q-80 0 -146.5 27t-119.5 86v34zM276 676q0 45 18.5 84t49.5 67.5t71 45t83 16.5q94 0 141 -62.5t47 -154.5q0 -45 -14.5 -86t-41 -72t-64.5 -49.5t-85 -18.5q-43 0 -81 20.5t-65.5 52.5t-43 73t-15.5 84z" />
<glyph unicode="h" horiz-adv-x="1239" d="M20 100q0 -49 40 -81.5t87 -32.5q41 0 78 12t78 12q35 0 69 -5t70 -5q45 0 82 9t66 48v37q0 57 -27.5 78t-60.5 28t-60.5 14t-27.5 36v201q0 4 3 20t5 21q0 2 1 10t2 17t3 17.5t2 10.5q16 55 46 115.5t71 111.5t95 85t120 34q49 0 70.5 -24.5t28.5 -60.5q5 -25 5 -53 q0 -12 -1 -25q-3 -42 -3 -77v-131q0 -16 -1 -58t-2 -90t-3 -90t-2 -59q-12 -10 -27.5 -13t-32 -5t-31.5 -6t-30 -15q-35 -29 -46 -44t-11 -56q0 -25 10 -39t27.5 -23.5t38 -13.5t39.5 -8q10 0 41.5 -1t41.5 -1q37 0 72 5t72 5q16 0 32.5 -4t32.5 -4q49 0 90 23.5t41 76.5 q0 33 -13 53.5t-34.5 33t-49 16.5t-54.5 6l-25 22v553q0 63 -19.5 117.5t-54 94.5t-87 62.5t-115.5 22.5q-82 0 -152.5 -36.5t-124.5 -98.5q-10 -12 -21 -36.5t-28 -28.5q-4 0 -13 2t-13 2v444q0 57 -43 89t-95 32h-12q-4 0 -19.5 -4t-19.5 -4q-27 -2 -61 -2q-33 0 -61.5 -6 t-49 -25.5t-20.5 -58.5q0 -8 4 -26.5t12 -37t17.5 -32t21.5 -13.5h113q12 0 20 -11t12 -20q0 -12 1 -41.5t2 -63.5t3.5 -62.5t2.5 -40.5q0 -4 3 -20.5t5 -20.5v-265l-13 -39v-448q0 -4 -14 -16.5t-22 -16.5l-11 -1q-10 -1 -16 -1q-25 0 -42 9.5t-42 9.5q-41 0 -53.5 -30 t-12.5 -65z" />
<glyph unicode="i" horiz-adv-x="886" d="M20 98q0 -35 21.5 -59.5t58.5 -24.5h699q35 0 50 29t15 57q0 14 -5 35t-16.5 39.5t-26.5 31.5t-34 13h-217l-12 12v762q0 43 -38 65.5t-73 22.5q-25 0 -48 -4t-48 -4q-35 0 -68.5 4t-68.5 4q-23 0 -50.5 -3t-51 -12t-40 -27.5t-16.5 -51.5q0 -16 5 -35.5t15.5 -36 t26 -27.5t35.5 -11h240v-453q-2 -4 -4 -20.5t-4 -20.5q0 -8 -1.5 -28.5t-3.5 -43t-3 -43t-1 -28.5l-14 -21h-225q-49 0 -73 -40t-24 -81zM293 1333q0 -68 36 -117t105 -49q57 0 102.5 36t45.5 97q0 31 -11.5 62t-31 56.5t-47 41t-60.5 15.5q-61 0 -100 -41.5t-39 -100.5z " />
<glyph unicode="j" horiz-adv-x="798" d="M20 -20q0 -41 4.5 -91.5t20.5 -89.5q16 -43 51 -79.5t79 -63.5t92 -42t93 -15q23 0 64 10t84 27.5t80 39t51 43.5q53 86 75.5 186.5t35.5 198.5q4 35 5 65t11 62v779q0 29 -21.5 50t-50.5 21h-344q-33 0 -65.5 -21.5t-32.5 -53.5q0 -35 16.5 -58.5t42 -38t56 -21.5 t59.5 -7q35 0 65.5 5t65.5 5h21q12 0 12 -2l16 -15q0 -2 1 -14t1 -18q0 -23 -2 -44.5t-12 -43.5v-410q-4 -4 -8 -19.5t-4 -19.5v-137q0 -10 -1 -38t-2 -58.5t-3.5 -58t-2.5 -38.5q-2 -6 -7 -24.5t-9 -22.5q0 -4 -3 -10t-5 -6l-88 -88q0 -2 -6 -4t-9 -4l-24 -9h-121 q-10 0 -22.5 9.5t-23.5 23t-18.5 27.5t-7.5 24t13.5 26.5t31 38t30.5 49.5t13 63q0 59 -36.5 104t-96.5 45q-29 0 -51 -6t-41 -35q-25 -39 -48.5 -93t-23.5 -103zM508 1343q0 -29 8 -56t23.5 -50t39 -37t56.5 -14q31 0 56.5 13t45 34.5t29.5 50.5t10 57q0 25 -11 53.5 t-30.5 54.5t-44 42t-51.5 16h-18q-6 0 -15 -8q-41 -35 -69.5 -68t-28.5 -88z" />
<glyph unicode="k" horiz-adv-x="1216" d="M20 100q0 -53 38 -72.5t83 -27.5h92q49 0 96.5 4t96.5 4q29 0 56.5 -4t56.5 -4q35 0 64.5 20.5t58.5 20.5q16 0 32.5 -10.5t32.5 -14.5q18 -4 53 -10t51 -6h123h125q18 4 39 9t37 14.5t27.5 23.5t11.5 37q0 4 -1 15.5t-1 13.5q-12 47 -35.5 69.5t-55.5 31.5t-70 10t-79 1 q-35 27 -50 64t-40 71q-2 4 -13 18.5t-25.5 31t-27 30t-14.5 17.5q-27 35 -57.5 75.5t-30.5 83.5q0 25 9.5 39.5t23.5 24.5t31.5 20.5t32.5 22.5q18 14 39.5 38.5t48 49.5t54.5 43t58 20q27 2 51 3q27 0 47.5 6t34 21.5t13.5 49.5q0 51 -39 75q-40 24 -92 33q-47 8 -95 8 h-11q-54 -1 -85 -1h-20t-32 -1t-32 -1h-20q-29 -8 -51.5 -25.5t-22.5 -50.5q0 -35 25.5 -60.5t48.5 -47.5q-4 -4 -16.5 -20.5t-16.5 -20.5q-12 -12 -42 -43t-64.5 -66t-65.5 -64.5t-43 -41.5q-2 0 -5 -1l-3 -1q-4 0 -10.5 1t-6.5 9v457q6 18 7 30.5t1 28.5q0 57 -6 102 q-4 27 -4 62q0 23 2 49q-6 49 -46 76.5t-87 27.5h-4q-4 0 -23.5 -4t-23.5 -4h-4h-4q-4 0 -24.5 4t-24.5 4h-13q-47 0 -90 -26.5t-43 -77.5q0 -39 17.5 -57.5t44 -24.5t59.5 -6h66q10 -8 20 -24.5t10 -30.5v-668l-10 -39v-289l-8 -3q-8 -3 -12 -5l-25 -8h-137 q-10 0 -20.5 -13.5t-18.5 -32t-12.5 -37t-4.5 -26.5zM438 225v168q2 2 9.5 11.5t19.5 23.5l18 21q14 16 32.5 32.5t41.5 16.5q8 0 37 -40t59.5 -90.5t55 -97.5t24.5 -61q0 -25 -26.5 -49.5t-49.5 -24.5h-8t-4 2q-4 0 -16.5 10.5t-16.5 12.5q-8 4 -36.5 9t-59.5 13 t-55.5 18.5t-24.5 24.5z" />
<glyph unicode="l" horiz-adv-x="1013" d="M18 96q0 -35 32 -58.5t67 -23.5h792q43 0 62.5 29t19.5 66q0 16 -5 35.5t-15 36t-25.5 27.5t-36.5 11h-272l-21 19v1089q0 35 -17 58.5t-44 37t-57.5 19.5t-57.5 6q-29 0 -55.5 -4t-54.5 -4q-37 0 -73 8t-73 8q-51 0 -95 -21.5t-44 -78.5q0 -27 6 -40t17.5 -21.5 t28 -12.5t36.5 -10q29 -10 48.5 -17.5t54.5 -7.5h32q6 0 22.5 3t35 7.5t34 8.5t21.5 6q6 -2 30.5 -15.5t24.5 -25.5v-344l-12 -39v-617l-10 -12h-314q-23 0 -38 -13t-25 -31.5t-14.5 -40.5t-4.5 -38z" />
<glyph unicode="m" horiz-adv-x="1247" d="M20 84q0 -23 13.5 -44.5t33 -36.5t44 -24.5t47.5 -9.5h168q16 0 33.5 8.5t33 19.5t28.5 23.5t23 20.5h5q10 0 32.5 -11.5t49 -24.5t51 -24.5t41.5 -11.5h118q16 0 27.5 9.5t22 19.5t22 19.5t25.5 9.5q18 0 35.5 -11.5t35.5 -13.5q59 -10 112.5 -25.5t113.5 -15.5 q39 0 63.5 37t24.5 72q0 25 -9.5 38t-22.5 24t-26.5 22.5t-21.5 31.5v93q0 23 -1 63v7q0 35 9 61v456q0 4 -3 16.5t-5 16.5q-14 33 -30.5 62.5t-39 53t-52.5 38t-67 14.5q-51 0 -80.5 -12.5t-52 -30.5t-44 -43t-52.5 -49q-27 20 -47.5 44.5t-42 46t-50 37t-71.5 15.5 q-23 0 -49.5 -12t-51 -28.5t-45 -37l-34.5 -34.5h-4h-4q-6 2 -15.5 13t-19.5 22.5t-18.5 21.5t-12.5 14q-16 16 -43 17.5t-49 1.5q-53 0 -92 -18.5t-39 -80.5q0 -39 18.5 -57t42 -26.5t42 -12.5t18.5 -14v-539l-17 -110q-2 -14 -21.5 -19.5t-41 -13.5t-40 -24.5t-18.5 -53.5 zM326 178v385q0 41 14 87t38.5 89t56.5 79t67 56q4 0 12 1.5t12 1.5q10 0 28.5 -3.5t18.5 -23.5v-633q0 -10 -17 -26.5t-39.5 -35t-44 -34t-28.5 -23.5h-6q-4 6 -23.5 24.5t-25.5 22.5q-4 2 -23.5 8.5t-23.5 8.5t-10 8t-6 8zM725 309q0 96 8 192.5t41 188.5q0 2 7 12.5 t10 12.5q4 6 13 23.5t19.5 37t18.5 36.5t12 24q16 16 32.5 28.5t39.5 12.5q10 0 29.5 -3.5t19.5 -23.5v-649q0 -18 -11.5 -27.5t-27.5 -14.5t-32.5 -8.5t-24.5 -5.5l-33 -16h-8h-9q-37 12 -58 27.5t-31.5 37t-12.5 49t-2 66.5z" />
<glyph unicode="n" horiz-adv-x="1159" d="M20 117q0 -45 16.5 -65.5t44.5 -29t62.5 -9.5t69.5 -5q4 0 20.5 -4t20.5 -4h84h84q41 4 72.5 25.5t31.5 64.5q0 53 -21.5 73.5t-51 28.5t-57 11.5t-40.5 21.5v31q0 23 1 37t12 35v233l11 19q11 18 17 28q2 4 8.5 13.5t8.5 11.5q23 39 52.5 83t66 81t80.5 61.5t96 24.5 q31 0 59.5 -5.5t46.5 -35.5q0 -6 1 -22.5t2 -34t2 -34t1 -22.5q2 -4 5 -23.5t3 -23.5v-4v-4q0 -6 -5 -24.5t-7 -24.5v-312l-18 -80l-8 -8q-66 -4 -110 -25.5t-44 -99.5q0 -66 65 -84q16 0 57.5 -2t87.5 -3t87 -2t57 -1h31q49 0 81 17.5t32 70.5q0 66 -44 92.5t-100 36.5 l-8 8l-1 11q-1 12 -1 18q0 23 1 41.5t9 40.5v506q0 47 -22.5 92t-58.5 80t-82 56.5t-91 21.5q-74 0 -138 -40t-122 -81q-12 -8 -24.5 -24.5t-24.5 -33t-23.5 -28.5t-23.5 -12h-4q-2 0 -4 2q-4 53 -12.5 88t-29 56.5t-56 33.5t-95.5 20q0 2 -14 1h-19q-45 0 -82.5 -19 t-37.5 -72q0 -49 25.5 -72.5t55 -36t55 -19.5t25.5 -21v-473q-6 -31 -9 -69t-7 -67l-8 -8q-61 -4 -102.5 -21t-41.5 -87z" />
<glyph unicode="o" horiz-adv-x="999" d="M20 518q0 -45 13.5 -108.5t38 -127t58.5 -118.5t75 -82q2 -2 17.5 -9t32.5 -16.5t34.5 -18.5t27.5 -13q12 -4 41 -8.5t39 -6.5q23 -6 35 -13t23.5 -13.5t28 -10.5t46.5 -4q61 0 124 33t116 83t93 111.5t57 116.5q2 12 10 45t17 69t16.5 67.5t11.5 44.5q0 4 1 21.5t1 23.5 q0 53 -13.5 103t-35 98.5t-47 94.5t-50.5 93q-2 0 -4 3t-4 5q-72 61 -143.5 99t-169.5 38q-129 0 -222 -50t-152.5 -134t-87.5 -192.5t-28 -223.5zM197 516q0 57 5 108.5t22.5 97.5t47 87t78.5 76q12 8 37 23.5t27 15.5h129q20 -12 50 -22.5t57.5 -24t51 -31t33.5 -43.5 q23 -59 36 -113.5t13 -118.5q0 -109 -28.5 -191.5t-116.5 -154.5q-37 -14 -66.5 -15t-70.5 -1h-43q-27 0 -29 2q-10 0 -24.5 2t-27.5 4t-24 5l-12 3l-96 97q-12 12 -21.5 37.5t-15.5 54t-9 57.5t-3 45z" />
<glyph unicode="p" horiz-adv-x="1167" d="M20 -262q0 -25 14.5 -44.5t36 -33.5t46 -21.5t47.5 -7.5h409q41 0 69 31t28 70q0 14 -3 31.5t-10.5 34t-19.5 27.5t-31 11h-145l-17 21v239q0 12 9.5 18.5t19.5 6.5q20 0 43 -12.5t44.5 -29t43 -31.5t41.5 -23q27 -10 45.5 -9.5t46.5 0.5q27 0 47.5 2t37 7.5t33.5 14.5 t40 23q76 49 124 105.5t75.5 121t39 139.5t11.5 161q0 82 -26.5 175t-77 171t-125 129t-171.5 51q-10 0 -29.5 -1t-21.5 -1q-4 0 -20.5 -3t-20.5 -5q-2 0 -13 -1t-23.5 -2t-22.5 -2t-12 -3q-2 0 -10.5 -8.5l-17.5 -17.5t-17.5 -18.5t-10.5 -11.5q-12 -10 -35.5 -29.5 t-37.5 -19.5h-4q-2 0 -5 2q-14 41 -43.5 62.5t-66.5 31t-78 10.5t-80 1q-25 0 -49.5 -4t-45 -14.5t-33.5 -29t-13 -48.5q0 -41 29.5 -53.5t69.5 -17.5t80 -12.5t62 -37.5q0 -6 1.5 -26.5t1.5 -27.5q0 -37 -5.5 -71.5t-5.5 -71.5q0 -41 5.5 -80t5.5 -80q0 -35 -5.5 -65.5 t-5.5 -63.5q0 -18 4 -35.5t4 -35.5v-4q0 -4 -3 -25t-5 -25v-12q0 -27 5.5 -51.5t5.5 -52.5q0 -76 -8.5 -149t-10.5 -150l-14 -21h-162q-18 0 -29.5 -10t-19.5 -25.5t-11.5 -32t-3.5 -30.5zM461 473v92q0 82 12 148.5t68 128.5q10 10 25.5 26.5t30.5 31.5t27 26l13 12h145 q25 0 46.5 -23.5t33.5 -40.5q37 -45 57.5 -80.5t31 -72.5t13.5 -79t3 -97v-88q-4 -43 -23.5 -88t-51.5 -81t-74 -58.5t-87 -22.5q-59 0 -103 22.5t-78 59.5t-55.5 85t-33.5 99z" />
<glyph unicode="q" horiz-adv-x="1159" d="M20 512q0 -88 32 -179t90.5 -166t138 -122t176.5 -47q37 0 71.5 5t69.5 22q18 8 30.5 20t25 22.5t27.5 18.5t38 8v-198q0 -10 -7 -29t-18 -27q-35 0 -73.5 -1t-70.5 -10t-52.5 -32.5t-20.5 -70.5q0 -37 18.5 -66t61.5 -29h522q35 0 45.5 27t10.5 53q0 49 -19.5 75 t-51.5 38t-71 14t-75 2l-19 17v1185q0 20 -25.5 35t-44.5 15q-33 0 -49 -15.5t-25.5 -34t-16.5 -34t-19 -15.5q-10 0 -25 8q-29 20 -56.5 42t-57 39.5t-62.5 28.5t-69 11q-12 0 -29 -4t-33 -9t-30.5 -10t-22.5 -9q-86 -35 -145.5 -97.5t-96.5 -140.5t-54.5 -166t-17.5 -174z M195 530v19q0 53 4 113.5t39 107.5q27 33 50 64.5t50 54t58.5 37t76.5 14.5q4 0 21.5 -1t23.5 -1q45 -16 82 -56t63.5 -90.5t41 -104.5t14.5 -99q0 -57 -14.5 -126t-45 -129.5t-81 -100t-121.5 -39.5q-49 0 -93.5 23.5t-79 62t-57 85t-30.5 93.5v18t-1 27.5t-1 27.5z" />
<glyph unicode="r" horiz-adv-x="1087" d="M20 999q0 -41 28 -68.5t69 -31.5q10 0 34.5 -2t53 -3t53.5 -2t35 -1l16 -17l13 -241v-39l4 -201q-2 -4 -5.5 -20.5t-3.5 -20.5q0 -8 -2 -27.5t-3 -41t-2 -40t-1 -25.5l-8 -9q-2 0 -17.5 -1t-23.5 -1q-31 0 -58.5 5t-56.5 6q-47 0 -78.5 -27t-31.5 -74q0 -51 40 -84 t89 -33h233q20 6 31.5 7t28.5 1q35 0 68.5 -4t68.5 -4q31 0 65.5 3t64.5 14.5t48.5 35t18.5 64.5q0 49 -39 74.5t-86 26.5q-23 0 -46.5 -4.5t-46.5 -4.5t-39 4t-24 27q0 8 -1 26.5t-2 39t-3 38.5t-2 25q0 4 -3 20.5t-5 20.5v231q0 10 10 31.5t24.5 44t29.5 42t24 27.5 l24.5 24.5l39 39t38.5 39t27 24.5q8 8 17 9.5t20 1.5h14t12 -11q2 -29 7 -68.5t19.5 -76.5t39 -62.5t65.5 -25.5q86 0 122 53t36 129q0 53 -21.5 97.5t-56.5 75t-83 48t-99 17.5q-84 0 -157 -43t-136 -94h-4q-8 0 -15.5 10t-12.5 24.5t-9 27.5t-8 17q-23 31 -66 42.5 t-92 13.5q-20 1 -39 1q-29 0 -58 -2q-21 -1 -38 -1q-24 0 -43 2q0 2 -6 2h-6q-43 0 -68 -30t-25 -71z" />
<glyph unicode="s" horiz-adv-x="894" d="M20 102q0 -37 15.5 -72.5t60.5 -35.5q37 0 54.5 16.5t24.5 38t12.5 41t17.5 25.5q35 -18 63.5 -48t65.5 -40q6 -2 20.5 -6.5t29.5 -8.5t28.5 -7t17.5 -3q2 0 22.5 -1t32.5 -1q74 0 142.5 26.5t123 75t87 114t32.5 142.5q0 76 -37.5 140.5t-91.5 113.5q-104 44 -223 64 q-100 17 -196 17q-19 0 -37 -1q-41 10 -64.5 35t-23.5 72q0 18 9 38.5t24.5 38t34 30t36.5 18.5q10 0 39 1t37 1h45t30.5 -2t30 -5.5t43.5 -11.5q45 -12 70 -51t43 -81t39.5 -74.5t58.5 -32.5q43 0 64.5 37.5t21.5 74.5v25q0 12 -2 44t-3 67.5t-2 67.5t-1 44 q2 29 -21.5 50.5t-52.5 21.5q-20 0 -32.5 -8.5t-21.5 -20.5t-18.5 -26.5t-23.5 -24.5q-61 43 -138 64.5t-151 31.5h-18q-27 0 -52.5 -7t-47.5 -17q-98 -41 -150.5 -104.5t-52.5 -172.5q0 -94 27.5 -151.5t73.5 -90t108.5 -47t130 -22.5t137.5 -16.5t133 -28.5q35 -14 46 -35 t11 -55q0 -49 -23.5 -83t-59 -54.5t-79.5 -29.5t-87 -9q-49 0 -87 15t-69 40.5t-56.5 59.5t-52.5 71q-12 16 -14 39.5t-16 40.5q-10 10 -25.5 13t-28.5 3q-27 0 -49 -17.5t-22 -45.5v-242q-10 -20 -11.5 -34t-1.5 -34z" />
<glyph unicode="t" horiz-adv-x="1007" d="M20 1022q0 -25 17.5 -53.5t46.5 -28.5h258v-227q-21 -58 -21 -122q1 -11 1 -23q4 -78 4 -150q0 -102 25.5 -180t109.5 -144q2 -2 12 -6t20.5 -9t20.5 -10.5t12 -5.5q23 -16 36 -25t26.5 -14.5t30 -7.5t47.5 -2q78 0 137 38t99 96.5t60.5 130t20.5 141.5q0 43 -20.5 80 t-71.5 37q-35 0 -53.5 -24t-28.5 -58.5t-19.5 -74.5t-24.5 -75t-44 -58.5t-78 -23.5q-18 0 -38.5 13.5t-38 32t-29 39t-11.5 36.5v569l25 23q2 2 25.5 3t35.5 1q59 0 103.5 -13.5t95.5 -13.5q41 0 66.5 30t25.5 71q0 43 -30.5 79.5t-77.5 36.5q-41 0 -81 -5t-83 -5h-45 q-27 0 -29 2l-14 15q-2 2 -2 26v37q0 49 5 94t5 92q0 49 -13.5 85t-72.5 36t-77.5 -35.5t-22 -86t-3.5 -101.5t-20 -82q-23 -33 -54.5 -40t-68.5 -7q-35 0 -68.5 -2t-58.5 -23q-25 -23 -48.5 -47t-23.5 -61z" />
<glyph unicode="u" horiz-adv-x="1208" d="M20 999q0 -37 16.5 -53t41 -23.5t52.5 -12.5t50 -19v-21q0 -12 1 -27.5t1 -29.5v-18q0 -94 -13 -186.5t-13 -186.5q0 -74 19.5 -148.5t59 -135t101 -99.5t145.5 -39q51 0 95.5 16.5t82 44t71.5 61.5t69 71h8v-89q0 -31 27.5 -49t64.5 -27.5t73 -11.5t52 -2q29 0 57.5 2 t52 11.5t38 30t14.5 57.5q0 41 -18.5 62.5t-48 32.5t-63.5 13t-65 2l-16 17l4 385v39l4 217q-6 20 -6 55t-6 66.5t-22.5 55t-53.5 24.5h-184q-39 0 -60.5 -21t-21.5 -55q0 -39 27.5 -58.5t61.5 -28t61.5 -11.5t27.5 -11v-297q0 -53 -20.5 -105.5t-51 -99.5t-69.5 -89 t-76 -75q-20 -18 -51 -22t-56 -4q-59 0 -84.5 34.5t-33.5 88.5q0 20 -3.5 72.5t-5.5 111.5t-4 111.5t-2 72.5q0 4 -1 34t-1 44q0 43 5 84t5 84q0 20 -3 45t-12 46.5t-26.5 34.5t-48.5 14h-168q-37 0 -58.5 -25t-21.5 -60z" />
<glyph unicode="v" horiz-adv-x="1222" d="M20 954q33 -43 80.5 -51t96.5 -12q8 0 8 -8q29 -53 48 -109.5t40 -114.5q2 -6 9 -28.5t14.5 -48t14.5 -48t9 -28.5q2 -2 7 -12.5t10 -22.5t10.5 -23.5t5.5 -13.5q2 -8 10 -26.5t15.5 -39t14.5 -39t9 -24.5q18 -55 39.5 -131t56.5 -133q16 -27 51 -41t64 -14t61.5 21.5 t38.5 49.5q53 174 112.5 345t112.5 346q8 14 16.5 37.5t16.5 48t17.5 45t21.5 28.5h47q31 0 57.5 6.5t46 20.5t19.5 45t-13 49.5t-33.5 28.5t-46.5 15t-52 11q-14 0 -48 1t-73 3.5t-73 3.5t-48 1h-22q-43 0 -79 -20.5t-36 -67.5q0 -35 19.5 -47.5t46 -17.5t54 -11t42.5 -29 q0 -4 1 -14.5t1 -14.5q0 -10 -14.5 -57t-37 -112.5t-49 -139.5t-50 -136.5t-43 -104t-25.5 -46.5l-9 9l-7 13t-16 31.5t-17.5 37t-14.5 30.5q-23 51 -35 98.5t-28 100.5q-10 27 -26.5 64.5t-32 76.5t-28 77t-12.5 67q0 25 28 32t61.5 13t61 19t27.5 52q0 31 -13 48.5 t-33.5 26.5t-45 11t-47.5 2q-29 0 -56.5 -4t-55.5 -4h-5q-4 0 -21 4t-35.5 8.5t-35 8.5t-20.5 4h-21q-31 0 -59.5 -4t-52 -16.5t-38 -34t-14.5 -54.5v-37z" />
<glyph unicode="w" horiz-adv-x="1239" d="M19 975q0 -13 10 -23q2 -4 11 -13l19.5 -19.5l19.5 -19.5l13 -13q35 -109 64.5 -228.5t56.5 -228.5q23 -96 41 -189.5t55 -187.5q18 -25 40 -37t52 -12q33 0 57.5 16.5t35.5 49.5q31 115 46 232.5t42 232.5q4 16 5 39.5t3 47t9 44t24 30.5q10 -4 21 -50t21.5 -114.5 t20.5 -148.5t22.5 -152.5t27 -128t30.5 -71.5q12 -14 35.5 -19.5t42.5 -5.5q27 0 46 13.5t36 33.5q25 63 43 131t22 135q4 18 14.5 57.5t22.5 88.5t25.5 102.5t27 102.5t23.5 88t14 57q0 2 3 12.5t7.5 21.5t8.5 21.5t6 16.5q2 4 4 10t4 6q2 4 11 13.5t19.5 19.5t19.5 19.5 t13 13.5v26q0 35 -19 55.5t-48 31t-61.5 13.5t-59.5 3q-25 0 -53.5 -3t-53 -14.5t-41 -32t-16.5 -53.5q0 -23 13.5 -33t31 -17t30.5 -14t13 -20v-104q0 -2 -5 -26.5t-13 -58.5t-16.5 -67.5t-14.5 -54.5q0 -4 -5 -19.5t-10 -33t-10.5 -32.5t-5.5 -19q-4 -10 -4 -27 q0 -16 -2 -32.5t-8 -29t-18 -16.5l-9 8q0 4 -6 30t-13 62.5t-11 59.5q-10 47 -13.5 92t-11.5 92q0 2 -4 15.5t-8 29t-8 27.5t-4 16q0 2 -1 17.5t-1 23.5q0 4 1 19.5t1 19.5q10 14 24 22.5t26.5 17.5t21.5 20.5t9 29.5q0 39 -27.5 59.5t-66.5 31t-80 12.5t-67 2 q-8 0 -23.5 -1t-17.5 -1q-6 0 -19.5 -3t-29 -7.5t-28.5 -8.5t-19 -6q-27 -8 -30 -23.5t-3 -35.5q0 -31 10 -45.5t22.5 -21.5t22.5 -12t10 -13v-97l-79 -368l-17 -33h-8l-6 20q-6 19 -10 29q-6 23 -19.5 79t-29 120.5t-29 122t-19.5 79.5v13q0 16 15.5 23t34 15.5t34 24 t15.5 47.5q0 37 -19.5 57.5t-49.5 31t-62.5 12.5t-59.5 2q-29 0 -56.5 -1t-50 -10.5t-36 -29t-13.5 -53.5z" />
<glyph unicode="x" d="M20 125q1 -97 97 -109q76 -2 147.5 -9t145.5 -7q25 0 49 5t44.5 16.5t34 31t13.5 47.5q0 25 -13.5 42.5t-28.5 29.5t-27.5 21.5t-12.5 19.5v4q12 31 28.5 56.5t36 50t38 48t34.5 52.5q10 10 25 10q8 0 33.5 -30.5t52 -69.5t47 -74t18.5 -43q-4 -16 -16 -23.5t-26.5 -15.5 t-26 -21.5t-11.5 -43.5q0 -37 25 -67t64 -30h360q41 0 60.5 36t19.5 71q0 23 -12.5 44t-34.5 26l-154 32q-16 2 -42.5 31t-53.5 63.5t-47.5 67.5t-24.5 45l-112 129v25q66 72 119 149.5t122 147.5q16 16 44 17t55.5 5t48 19.5t20.5 60.5q0 39 -24.5 66.5t-63.5 29.5 q-4 0 -26.5 2t-50 3t-56.5 2.5t-43 1.5h-23q-23 0 -55.5 -2.5t-64 -10.5t-54 -25.5t-22.5 -50.5q0 -35 14.5 -51t30.5 -25.5t30.5 -17.5t14.5 -22q0 -16 -4 -21.5t-21 -21.5q-6 -6 -19 -20.5t-28.5 -32t-29 -32t-19.5 -20.5h-8q-10 0 -28.5 19.5t-35 46t-29 51.5t-12.5 37 q0 14 10.5 22.5t23 15.5t22.5 19.5t10 36.5q0 43 -33 67.5t-71 28.5q-16 2 -59.5 4t-92.5 5.5t-92 5.5t-62 2h-12q-33 0 -60.5 -15.5t-47.5 -40.5v-36q0 -41 20.5 -61.5t52 -29t68.5 -9.5t67 -1q10 -2 32 -24.5t48.5 -55t55 -71.5t52 -74t39 -62.5t15.5 -35.5v-4 q-2 -4 -4 -12.5t-4 -12.5l-20.5 -20.5t-30 -31t-28.5 -31.5t-17 -21q-2 -2 -9.5 -13.5t-15.5 -24t-15 -22.5t-9 -12l-28 -35t-41.5 -49.5t-42 -45t-32.5 -22.5q-25 -2 -58.5 -4t-65 -11t-54.5 -28.5t-23 -56.5z" />
<glyph unicode="y" horiz-adv-x="1222" d="M20 -180q0 -55 25 -101.5t65 -80t91 -52t104 -18.5q70 0 140.5 40t111.5 97q2 2 8 13.5t13.5 25.5t12.5 25.5t7 15.5q2 2 11 15.5t11.5 15.5t5.5 8t3 8q78 201 147.5 394.5t124.5 398.5q6 25 13.5 55.5t18.5 61t26.5 57t37.5 43.5h80t63.5 9t42 33.5t15.5 73.5 q0 39 -15.5 55.5t-40 21.5t-54 6t-58.5 10h-264q-41 0 -61.5 -22.5t-20.5 -57.5q0 -41 17.5 -60.5t39 -31t40 -20.5t18.5 -30v-10q0 -6 -2 -10q-4 -18 -17.5 -63.5t-29 -96.5t-28.5 -96t-20 -64q-4 -8 -10 -30.5t-15 -46t-20.5 -42t-23.5 -18.5t-21.5 13.5t-15.5 30t-9 32.5 t-5 21q-2 6 -8.5 23t-14.5 37.5t-15 39t-12 29.5q-10 27 -26.5 57.5t-31.5 63t-26.5 64.5t-11.5 60q0 18 20.5 28.5t44 21t44 29t20.5 54.5q0 20 -11 38t-29.5 30t-40 19.5t-40.5 7.5h-319q-27 0 -43 -15.5t-24.5 -37t-11.5 -46t-3 -45.5q0 -29 20.5 -41t45.5 -16 q6 0 23.5 -2t36.5 -3t36.5 -2t23.5 -1q35 -23 51.5 -72t20.5 -88q10 -27 38 -94.5t58.5 -142t58 -142l38.5 -94.5q2 -8 8 -22.5t10 -30t8 -28.5t4 -15q2 -2 2 -21v-24q0 -27 -8 -59t-21.5 -62.5t-30.5 -58t-36 -48.5q-8 -6 -20.5 -17t-23.5 -21.5t-20 -17.5l-10 -7h-55 q-6 0 -7 6t-1 10q0 20 8 35.5t8 38.5q0 59 -30.5 101t-94.5 42q-78 0 -121 -57t-43 -133z" />
<glyph unicode="z" horiz-adv-x="991" d="M20 109q0 -53 36 -81t89 -28q27 0 51.5 4t53.5 4q41 0 76.5 -4t76.5 -4h50q27 0 49 12h393q16 0 29.5 11.5t22.5 29t14.5 35.5t5.5 33v280q0 16 -6.5 36t-18.5 37.5t-28.5 28.5t-34.5 11q-47 0 -62.5 -38t-22 -87t-14.5 -96t-39 -68q-6 -4 -15 -9t-19.5 -10t-18.5 -9 t-10 -4h-363q0 4 -4 16t-2 16q10 23 28.5 45.5t39 45t41 42t35.5 35.5q47 49 91 101.5t95 99.5l55 55q29 31 51.5 61.5t53.5 59.5q6 6 24.5 23.5t39 37t39 37t26.5 23.5q14 16 15 32.5t1 34.5v19q0 14 -2 18q-33 45 -96 56q-16 0 -55 1t-84 2t-85 3t-57 2q-70 4 -138.5 14 t-137.5 10q-41 0 -85 -23.5t-54 -64.5l-58 -241v-25q0 -37 12.5 -67.5t57.5 -30.5q31 0 50 21.5t32.5 51t26 61.5t30.5 52q33 39 97.5 64.5t115.5 25.5q35 0 69.5 -6t69.5 -10q10 -2 11 -12v-15q0 -4 -1 -9l-1 -5l-97 -96l-16 -33l-264 -264q-18 -43 -61.5 -87t-88.5 -87 t-80 -86t-35 -88z" />
<glyph unicode="&#xa2;" horiz-adv-x="1312" d="M20 -182q0 -35 28 -42t56 -7q37 0 59.5 11t39 31.5t31 47t34.5 55.5q2 2 10.5 12.5t18.5 22.5t18.5 22.5t10.5 14.5q10 14 19 28.5t28 18.5q49 -14 105.5 -27.5t107.5 -13.5q55 0 97 30.5t83 59.5q2 2 14.5 7t26.5 12.5t25.5 12.5t15.5 7q23 16 48.5 44t47 61.5 t34.5 68.5t13 67q0 33 -20.5 53.5t-55.5 20.5q-25 0 -42 -11t-29.5 -28.5t-22.5 -37t-22 -37.5q-45 -61 -119 -99.5t-150 -38.5q-4 0 -22.5 1t-22.5 1q-8 2 -8 9v12q0 16 18.5 49t44 69.5t51 70.5t40.5 55q6 8 22.5 32.5t34 51t33.5 50t22 33.5l9 9q45 2 86 10t71.5 26.5 t50 52.5t23.5 87q0 10 2 35.5t3 53.5t2 53.5t1 35.5q31 63 70 120.5t80 115t78.5 116t68.5 121.5q0 2 1 9t1 12q0 31 -32.5 49t-61.5 18q-27 0 -59.5 -33.5t-67.5 -83t-69.5 -109t-66.5 -108.5t-57.5 -82.5t-39.5 -33.5q-18 0 -35 8t-35 8h-184q-47 0 -96.5 -28.5 t-88.5 -51.5q-74 -45 -129 -107.5t-93 -137t-56.5 -158.5t-18.5 -170q0 -43 9.5 -92.5t31.5 -88.5q6 -10 17.5 -26.5t24 -33.5t21.5 -34.5t9 -25.5q0 -2 -3 -11.5t-5 -13.5q-16 -27 -47 -71t-61.5 -90t-53.5 -86.5t-23 -63.5zM268 487q0 123 63.5 232.5t162.5 179.5 q23 16 34 24.5t35 8.5q20 0 29.5 -12.5t11.5 -30t1 -36.5t1 -34q0 -4 4 -19.5t4 -19.5v-28q0 -27 -18 -61t-43 -69.5t-50.5 -67.5t-39.5 -54q-33 -51 -56.5 -103.5t-72.5 -89.5q-2 -2 -6 -2h-2q-16 0 -27.5 23.5t-18 55.5t-9.5 61.5t-3 41.5z" />
<glyph unicode="&#xc4;" horiz-adv-x="1247" d="M18 117q0 -43 27 -80t74 -37q41 0 80 8t80 8q31 0 58.5 -4t55.5 -4q45 0 77 20.5t32 67.5q0 43 -19.5 60.5t-42 28t-42 22.5t-19.5 47q0 4 1 14.5t1 12.5l57 120q2 4 18.5 17.5t20.5 13.5h322q10 0 19 -14.5t17.5 -32.5t12.5 -34.5t6 -22.5q2 -4 4 -16.5t5 -27t5 -26.5 t2 -18q-6 -16 -21 -25.5t-34.5 -18t-39 -17.5t-34.5 -27v-35q0 -37 13.5 -57.5t36 -30t51 -11.5t61.5 -2q49 -2 104.5 -5t106.5 -3q47 0 78 25.5t31 75.5q0 51 -39 75q-14 4 -37 8.5t-45.5 11.5t-40 19.5t-23.5 32.5l-192 729q-35 66 -47.5 138.5t-32.5 142.5 q-6 23 -13.5 57.5t-20.5 68t-35.5 58.5t-59.5 25q-33 0 -53.5 -19.5t-32.5 -47.5t-19.5 -57.5t-13.5 -52.5q-29 -98 -62.5 -196t-66.5 -197q-16 -45 -22.5 -88t-24.5 -88q-6 -20 -19.5 -71.5t-28.5 -108.5t-28.5 -108.5t-19.5 -71.5q-8 -29 -21.5 -72t-44.5 -57 q-29 -12 -49 -18.5t-37.5 -14.5t-35 -19.5t-38.5 -35.5q0 -4 -1 -17.5t-1 -17.5zM268 1712q0 -53 40 -93t93 -40q59 0 88 44t29 97q0 55 -25.5 98.5t-91.5 43.5q-29 0 -52 -13.5t-41.5 -35t-29 -48t-10.5 -53.5zM492 641q0 53 16 108.5t33 108.5q2 6 11 31.5t21.5 58.5 t23.5 63.5t17 47.5q2 4 6.5 14t12.5 10q2 0 12 -27.5t24.5 -69.5t31 -93t29.5 -99.5t21.5 -88t8.5 -56.5q0 -4 -1 -13t-1 -11l-8 -9q-43 -4 -83 -10t-81 -6q-29 0 -49 1t-43 15q0 4 -1 12.5t-1 12.5zM733 1712q0 -53 29 -90t88 -37q63 0 102 45t39 105q0 59 -33.5 92 t-91.5 33q-66 0 -99.5 -41t-33.5 -107z" />
<glyph unicode="&#xc5;" horiz-adv-x="1247" d="M18 131q0 -43 27 -80t74 -37q41 0 80 8.5t80 8.5q31 0 58.5 -4t55.5 -4q45 0 77 20t32 68q0 43 -19.5 60t-42 27.5t-42 22.5t-19.5 47q0 4 1 14.5t1 12.5l57 121q2 4 18.5 17t20.5 13h322q10 0 19 -14t17.5 -32.5t12.5 -35t6 -22.5q2 -4 4 -16.5t5 -26.5t5 -26.5t2 -18.5 q-6 -16 -21 -25.5t-34.5 -17.5t-39 -17.5t-34.5 -27.5v-35q0 -37 13.5 -57.5t36 -29.5t51 -11t61.5 -2q49 -2 104.5 -5t106.5 -3q47 0 78 25.5t31 74.5q0 51 -39 76q-14 4 -37 8t-45.5 11t-40 19.5t-23.5 32.5l-192 729q-35 66 -47.5 138.5t-32.5 142.5q-6 23 -13.5 57.5 t-20.5 68.5t-35.5 58.5t-59.5 24.5q-33 0 -53.5 -19.5t-32.5 -47t-19.5 -57.5t-13.5 -52q-29 -98 -62.5 -196.5t-66.5 -196.5q-16 -45 -22.5 -88.5t-24.5 -88.5q-6 -20 -19.5 -71t-28.5 -108.5t-28.5 -109t-19.5 -71.5q-8 -29 -21.5 -72t-44.5 -57q-29 -12 -49 -18.5 t-37.5 -14.5t-35 -19.5t-38.5 -35.5q0 -4 -1 -17.5t-1 -17.5zM397 1806q0 -49 20.5 -91t54.5 -72.5t78 -48t91 -17.5t89 19.5t73 53t49 75.5t18 90q0 106 -66.5 171.5t-168.5 65.5q-41 0 -82 -6t-76 -29q-37 -51 -58.5 -98t-21.5 -113zM492 655q0 53 16 108.5t33 108.5 q2 6 11 32t21.5 58.5t23.5 63.5t17 47q2 4 6.5 14.5t12.5 10.5q2 0 12 -28t24.5 -70t31 -93t29.5 -99t21.5 -88t8.5 -56q0 -4 -1 -13.5t-1 -11.5l-8 -8q-43 -4 -83 -10.5t-81 -6.5q-29 0 -49 1.5t-43 15.5q0 4 -1 12t-1 12zM555 1821q0 4 1 16l1 12l25 25h96q4 0 16.5 -12.5 t16.5 -20.5v-29q0 -41 -18.5 -58t-59.5 -17q-43 0 -60.5 20.5t-17.5 63.5z" />
<glyph unicode="&#xc6;" horiz-adv-x="1818" d="M20 102q0 -27 13.5 -44t35 -28.5t45 -15.5t46.5 -4q31 0 60.5 4t60.5 4q33 0 61.5 -4t58.5 -4q39 0 74 16.5t35 57.5q0 47 -35 84t-78 51q0 4 -1 15.5t-1 15.5q0 41 16.5 84t51.5 69q8 0 28.5 1.5t43 2.5t43 3t28.5 2q4 0 20.5 3t20.5 5h209l14 -17v-176l-8 -8 q-37 -2 -74.5 -4t-69.5 -12t-52.5 -35t-20.5 -72v-18q0 -10 2 -12l31 -31l96 -29h297q23 -12 45 -12h45h47q25 0 49 8h248q29 -16 56.5 -17t60.5 -1q6 0 29.5 1t29.5 1q39 16 76 50t37 79q0 37 -2 73.5t-18 69.5v266q0 33 -28 66t-60 33q-41 0 -65 -39t-24 -76v-217 q0 -2 -4 -7l-8 -10l-55 -55q-23 -2 -78 -4t-118.5 -5t-119 -5t-77.5 -2h-27q-14 0 -33.5 5t-19.5 25v418l22 25h105q12 0 28.5 -15.5t32 -35t27.5 -40t16 -30.5q0 -23 1 -58.5t8.5 -69.5t26.5 -57.5t56 -23.5q31 0 50.5 16.5t19.5 49.5v690q0 29 -22.5 50.5t-51.5 21.5 q-35 0 -51 -28t-22.5 -66t-7.5 -76.5t-7 -63.5q-14 -18 -39.5 -32.5t-54.5 -26t-57.5 -16.5t-49.5 -5q-8 0 -19 1t-11 16v376q0 12 13 17.5t30.5 7.5t35 1t25.5 -1h39q14 0 53 -1t83 -3t82 -3t55 -1q14 0 31.5 -12.5t32.5 -31t25.5 -38t14.5 -31.5q6 -29 6 -82t6 -106.5 t22.5 -93t57.5 -39.5q35 0 59.5 30.5t24.5 65.5v450q0 27 -13.5 43.5t-33.5 27.5t-44 16.5t-44 9.5q-33 0 -115 1t-174 3t-174 3t-115 1h-280q-23 6 -36 7t-34 1q-59 0 -80.5 -20.5t-29 -51t-13.5 -69.5t-32 -76l-146 -490l-16 -40l-144 -474q-12 -37 -45.5 -45t-69.5 -15 t-65 -28.5t-29 -83.5zM510 639v12q2 10 8 36t14.5 53.5t15.5 52t11 34.5q6 20 23.5 73.5t38 113t39 112t26.5 72.5q23 53 53.5 66.5t87.5 13.5q20 0 35 -2t25 -31q0 -4 1 -21.5t1 -21.5q0 -23 -1 -43t-14 -41v-514h-309q-16 0 -35.5 8.5t-19.5 26.5z" />
<glyph unicode="&#xd6;" horiz-adv-x="1112" d="M20 584q0 -2 3.5 -14.5t6.5 -28t7 -30.5t8 -24q12 -39 34.5 -90t52.5 -103t64.5 -97t71.5 -70q4 -4 21.5 -12.5t36 -17.5t35 -17t20.5 -10q45 -23 83 -39.5t91 -16.5q31 0 49.5 5.5t33.5 13.5t31.5 17t41.5 20q111 43 183.5 123.5t115.5 182t60 215.5t17 222 q0 111 -28.5 215.5t-75.5 206.5q-31 31 -51.5 68.5t-44.5 74.5q-12 18 -34 30.5t-38 25.5q-35 27 -66.5 48t-64.5 35.5t-67.5 22.5t-77.5 8q-102 0 -180 -42t-135.5 -109.5t-96.5 -152.5t-66 -171q-4 -14 -11 -39.5t-13 -51.5t-11.5 -46.5t-5.5 -22.5v-329zM172 1792 q0 -53 40 -93t93 -40q61 0 89 44t28 97q0 55 -25.5 98.5t-91.5 43.5q-29 0 -52.5 -13.5t-41.5 -35t-28.5 -48t-10.5 -53.5zM197 784q0 68 21.5 166.5t64.5 188.5t108.5 153.5t155.5 63.5q57 0 92 -28t80 -62q47 -37 75.5 -77t47 -83t30 -91t23.5 -102v-264 q0 -35 -11.5 -55.5t-21.5 -48.5q-10 -37 -28.5 -87t-47 -94.5t-67.5 -76t-88 -31.5h-201q-23 0 -51.5 26.5t-56 61.5t-49 72t-27.5 55q-25 74 -37 154.5t-12 158.5zM637 1792q0 -53 29.5 -90t89.5 -37q61 0 100 46t39 106q0 59 -34 92t-91 33q-66 0 -99.5 -42t-33.5 -108z " />
<glyph unicode="&#xd8;" horiz-adv-x="1247" d="M20 35q0 -35 28 -42t56 -7q49 0 79 24.5t52.5 60t43 73.5t55.5 67q14 -33 57 -67.5t95.5 -62.5t107.5 -46.5t96 -18.5q31 0 50.5 5.5t33.5 14.5t30.5 18t41.5 20q111 41 183.5 121.5t115.5 182t60.5 215.5t17.5 222q0 111 -29 215.5t-76 206.5q-14 14 -31.5 37.5 t-17.5 46.5q0 2 1 6t1 6q10 14 27.5 36t36 45.5t33 48t16.5 46.5q0 4 -3 23.5t-5 23.5q-20 14 -45 15.5t-48 1.5h-45q-6 -6 -21.5 -25.5t-30.5 -41t-28.5 -38t-19.5 -16.5q-12 0 -31.5 11.5t-42 26.5t-44 29.5t-38.5 20.5q-31 10 -51 10h-57q-102 0 -179 -42t-134.5 -109.5 t-97.5 -152.5t-66 -171q-4 -14 -11.5 -39.5t-13.5 -51.5t-10 -45t-4 -24v-327q0 -53 26.5 -116.5t53.5 -109.5q-23 -16 -60 -63t-71.5 -99.5t-60.5 -99.5t-26 -65zM332 731v55q0 68 21.5 166.5t64.5 188.5t108.5 153.5t155.5 63.5q12 0 36.5 -5t47 -14.5t40 -24t17.5 -30.5 q0 -37 -22.5 -56.5t-34.5 -47.5q-29 -63 -65.5 -118.5t-77.5 -113.5q-16 -23 -18.5 -37t-22.5 -28q-6 -4 -7.5 -7.5t-1.5 -7.5t-1 -10t-7 -14q-23 -35 -52.5 -63.5t-51.5 -65.5q-10 -16 -20.5 -39t-21.5 -46.5t-24.5 -44t-29.5 -30.5q-12 18 -19.5 48t-10.5 63.5t-3 64.5z M444 387q0 16 8.5 18.5t16.5 12.5q41 57 81 121.5t73 128.5q0 2 3 15t3 15q4 10 10 28.5t6 21.5q2 2 8 4t9 4q12 8 10 15t6 24q6 14 20.5 17t20.5 15q0 2 3 15.5t3 17.5q8 12 15.5 14.5t17.5 8.5l8 13t16.5 28.5t16.5 30t8 16.5q4 6 16.5 18t26.5 26.5t26.5 27t18.5 16.5 q6 6 11 22.5t11.5 32.5t14.5 28.5t18 12.5q18 -33 30.5 -61.5t21 -56t14.5 -57.5t14 -65v-264q0 -35 -11 -54t-22 -50q-10 -37 -28.5 -87t-47 -94t-67.5 -76t-88 -32h-201q-18 0 -38.5 13.5t-39 34t-31 42t-12.5 39.5z" />
<glyph unicode="&#xdf;" horiz-adv-x="1230" d="M20 102q0 -35 13.5 -56t35 -32.5t50 -15.5t57.5 -4q20 0 73.5 1t111 8t101.5 21.5t44 41.5v1081q0 8 5 28.5t14.5 41t21.5 36t26 15.5h185q10 -8 28.5 -20.5t37 -27t32.5 -29.5t14 -28v-143q0 -12 -9 -24.5t-21.5 -23.5t-26.5 -19.5t-22 -12.5q-29 -12 -72 -14t-85 -10.5 t-72 -28t-30 -66.5q0 -23 20.5 -42t45.5 -19h231l7 -4q6 -4 10 -8q2 -2 10 -9.5t17.5 -15.5t17.5 -15.5t10 -9.5q20 -16 45 -28.5t37 -34.5q6 -10 13.5 -26.5t15.5 -32t13 -26.5l5 -11v-168l-9 -23q-9 -22 -15 -33q-23 -53 -67 -82.5t-97.5 -43t-109.5 -14.5t-103 3 q-37 4 -54.5 -25.5t-17.5 -60.5q0 -37 23.5 -67.5t64.5 -30.5h184q59 0 104.5 28.5t88.5 59.5q25 16 41 20t31 29q20 33 41.5 75t37 87t25.5 91t10 87q0 66 -21.5 129.5t-60.5 114.5q-6 8 -27.5 28.5t-46 44t-44 42t-19.5 22.5q0 18 13.5 32.5t19.5 30.5q16 39 28.5 81 t12.5 83q0 49 -18.5 113.5t-47.5 107.5q-70 74 -148.5 125.5t-182.5 51.5q-49 0 -101.5 -16.5t-98.5 -46.5t-79 -73t-39 -98q-4 -31 -3 -70.5t-15 -72.5v-842q0 -8 -9.5 -28.5t-19.5 -26.5q-6 0 -29.5 -1t-29.5 -1q-33 0 -61.5 5t-59.5 5q-47 0 -74 -32t-27 -77z" />
<glyph unicode="&#xe4;" horiz-adv-x="1142" d="M20 317q0 -96 38 -168.5t122 -121.5q16 -10 32.5 -21.5t39.5 -11.5h184q35 0 68 13t63.5 32.5t60 40t58.5 35.5h10q14 0 25.5 -10.5t21 -23.5t18.5 -26.5t21 -19.5q35 -23 63.5 -32t67.5 -9q49 0 87 22.5t64 58.5t40 81t14 90q0 20 -4 41.5t-14 40t-26.5 31t-39.5 12.5 q-43 0 -56 -29t-19.5 -64.5t-14.5 -64.5t-41 -29q-49 0 -49 58v346q10 25 9 56.5t-1 55.5v64q0 6 -3 21.5t-7 33t-8 33.5t-6 22q-6 25 -32 60t-59.5 65.5t-69.5 53t-63 22.5h-313q-33 0 -57.5 -19.5t-46.5 -35.5q-27 -18 -53.5 -40t-47 -46.5t-33 -53t-12.5 -65.5 q0 -63 42 -106t108 -43q43 0 68.5 17t39 43t19.5 56.5t11 56t11 43t23 17.5h192q2 0 26.5 -12.5t37.5 -18.5q33 -18 45 -49t12 -65q0 -49 -49 -65.5t-123 -23t-161 -13.5t-160.5 -38.5t-123 -100.5t-49.5 -196zM125 1368q0 -53 39 -93t92 -40q61 0 89 44t28 97 q0 55 -25.5 98.5t-89.5 43.5q-29 0 -52.5 -13.5t-42 -35t-28.5 -48t-10 -53.5zM180 319q0 23 15.5 53.5t25.5 45.5q20 31 47 33q51 8 101.5 12t99.5 12q6 0 33.5 5t58.5 10.5t58.5 10.5t33.5 5l4 2q2 0 3 -1l2 -1q2 0 8 -3t8 -3v-25q0 -88 -26.5 -143.5t-102.5 -106.5 q-4 -2 -19.5 -10t-19.5 -12q-8 -4 -19.5 -10.5t-13.5 -6.5h-209q-20 0 -36.5 14.5t-27.5 36t-17.5 44t-6.5 38.5zM590 1368q0 -53 28.5 -89t88.5 -36q61 0 100 45t39 105q0 59 -34 92t-91 33q-66 0 -98.5 -42t-32.5 -108z" />
<glyph unicode="&#xe5;" horiz-adv-x="1142" d="M20 324q0 -96 38 -169t122 -122q16 -10 32.5 -21.5t39.5 -11.5h184q35 0 68 13.5t63.5 33t60 39.5t58.5 35h10q14 0 25.5 -10.5t21 -23.5t18.5 -26.5t21 -19.5q35 -23 63.5 -32t67.5 -9q49 0 87 22.5t64 58.5t40 81t14 90q0 20 -4 41.5t-14 40t-26.5 31t-39.5 12.5 q-43 0 -56 -29t-19.5 -64.5t-14.5 -64.5t-41 -29q-49 0 -49 58v346q10 25 9 56.5t-1 56.5v63q0 6 -3 21.5t-7 33t-8 33.5t-6 23q-6 25 -32 59.5t-59.5 65t-69.5 53t-63 22.5h-313q-33 0 -57.5 -19.5t-46.5 -35.5q-27 -18 -53.5 -39.5t-47 -46.5t-33 -53.5t-12.5 -65.5 q0 -63 42 -106t108 -43q43 0 68.5 17.5t39 43t19.5 56t11 56t11 43t23 17.5h192q2 0 26.5 -12t37.5 -19q33 -18 45 -48.5t12 -65.5q0 -49 -49 -65.5t-123 -22.5t-161 -13.5t-160.5 -39t-123 -100t-49.5 -195.5zM180 326q0 23 15.5 53.5t25.5 44.5q20 31 47 33q51 8 101.5 12 t99.5 12q6 0 33.5 5.5t58.5 10.5t58.5 10t33.5 5l4 2q2 0 3 -1l2 -1q2 0 8 -3t8 -3v-25q0 -88 -26.5 -143t-102.5 -107q-4 -2 -19.5 -10t-19.5 -12q-8 -4 -19.5 -10t-13.5 -6h-209q-20 0 -36.5 14t-27.5 35.5t-17.5 44.5t-6.5 39zM221 1391q0 -47 20.5 -89t54.5 -73 t78 -49.5t91 -18.5t89 19.5t72.5 53.5t49 76t18.5 89q0 106 -66.5 171.5t-170.5 65.5q-39 0 -80 -6t-76 -26q-37 -53 -58.5 -100t-21.5 -113zM379 1405q0 4 1 17l1 12l25 24h96q4 0 16 -12t14 -19q2 -2 3 -14v-16q0 -76 -78 -76q-43 0 -60.5 20.5t-17.5 63.5z" />
<glyph unicode="&#xf6;" horiz-adv-x="999" d="M20 563q0 -45 13.5 -108.5t38 -127t58.5 -118.5t75 -82q2 -2 17.5 -9t32.5 -16.5t34.5 -18.5t27.5 -13q12 -4 41 -8.5t39 -6.5q23 -6 35 -13t23.5 -13t28 -10.5t46.5 -4.5q61 0 124 33t116 83t93 111.5t57 116.5q2 12 10 45t17 69t16.5 67.5t11.5 44.5q0 4 1 21.5t1 23.5 q0 53 -13.5 103t-35 98.5t-47 94.5t-50.5 93q-2 0 -4 3t-4 5q-72 61 -143.5 99t-169.5 38q-129 0 -222 -50t-152.5 -134t-87.5 -192.5t-28 -223.5zM100 1391q0 -53 40 -93.5t93 -40.5q59 0 88 44.5t29 97.5q0 55 -25.5 98t-91.5 43q-29 0 -52 -13.5t-41.5 -35t-29 -47.5 t-10.5 -53zM197 561q0 57 5 108.5t22.5 97.5t47 87t78.5 76q12 8 37 23.5t27 15.5h129q20 -12 50 -22.5t57.5 -24t51 -31t33.5 -43.5q23 -59 36 -113.5t13 -118.5q0 -109 -28.5 -191.5t-116.5 -154.5q-37 -14 -66.5 -15t-70.5 -1h-43q-27 0 -29 2q-10 0 -24.5 2t-27.5 4 t-24 5l-12 3l-96 97q-12 12 -21.5 37.5t-15.5 54t-9 57.5t-3 45zM565 1391q0 -53 29 -90t88 -37q63 0 102 45t39 104t-33.5 92t-91.5 33q-66 0 -99.5 -40.5t-33.5 -106.5z" />
<glyph unicode="&#xf8;" horiz-adv-x="1030" d="M20 -6q0 -35 28 -42t56 -7q33 0 55.5 10t39 26.5t31 40t30.5 52.5h8h8q47 -16 77 -27.5t75 -21.5q25 -6 37 -13.5t23.5 -13.5t26.5 -10t46 -4q61 0 124 32.5t116 83t93 111.5t56 119q2 12 10.5 44t17.5 67.5t16 67.5t12 44q0 4 1 22.5t1 22.5q0 66 -23.5 141.5 t-58.5 134.5q-16 25 -37 52.5t-21 60.5q0 14 17.5 26.5t23.5 29t10.5 33t14.5 30.5q12 20 34.5 40.5t22.5 43.5q0 35 -26.5 50t-55.5 17q-39 4 -67.5 -21.5t-49 -58t-34 -60t-21.5 -27.5q-49 0 -96 20t-100 20q-129 0 -221.5 -50t-153 -133t-88 -191.5t-27.5 -223.5 q0 -86 27.5 -160.5t62.5 -154.5v-4q0 -27 -18.5 -53.5t-42 -53t-42 -55t-18.5 -57.5zM227 530q0 115 28 206t126 161q12 10 36.5 25.5t26.5 15.5h129l48 -25q-2 -4 -7.5 -19t-7.5 -20q-8 -18 -17 -22t-16 -18q-18 -45 -51 -81t-61 -79q-20 -35 -37.5 -74t-42.5 -70 q-33 -41 -59.5 -66.5t-45.5 -70.5q-2 -4 -4 -9t-4 -7h-4h-4q-14 39 -23.5 75.5t-9.5 77.5zM373 242v8q0 6 13 24.5t30.5 40t33 39t19.5 23.5q41 57 81 120.5t71 127.5q2 4 5 17t3 15q4 10 10 29t6 21q2 0 8 3t9 3q12 10 9 17t7 24q6 14 20.5 17t18.5 15q4 8 8 28t20 20h5 q2 -2 8 -7.5t8 -9.5q23 -59 36 -112.5t13 -118.5q0 -109 -28.5 -191t-116.5 -153q-35 -14 -65 -16.5t-70 -2.5q-47 0 -81 2.5t-81 16.5z" />
<glyph unicode="&#x152;" horiz-adv-x="1826" d="M20 459q0 -23 11.5 -51.5t28 -57t35 -55.5t30.5 -45q41 -61 83 -109.5t93 -83t112.5 -53t141.5 -18.5h27q8 2 28.5 9t44 14t44 14.5t28.5 11.5q16 6 31.5 19.5t30 26.5t31 23.5t36.5 10.5h8q4 -16 11.5 -36t18.5 -36t27.5 -26.5t39.5 -10.5h616q20 -10 33.5 -11t34.5 -1 q72 0 114.5 41t42.5 112q0 45 -8 89.5t-8 91.5q0 33 5 63.5t5 63.5q0 20 -2 51t-11 57.5t-26.5 46t-50.5 19.5q-31 0 -57.5 -29t-26.5 -61v-215q-10 -10 -18.5 -29t-19.5 -35t-23.5 -28.5t-30.5 -12.5h-434l-3 5t-6 9l-8 25v393q0 10 10.5 25.5t22.5 15.5h96q18 0 35 -14 t30 -34.5t23.5 -40t16.5 -32.5q0 -6 1 -24.5t2 -39t3 -38.5t2 -27q4 -35 20.5 -54t42.5 -42h21q31 0 49.5 31t18.5 57v668q0 31 -19.5 51.5t-48.5 20.5q-35 0 -48.5 -23t-18.5 -55.5t-10 -71.5t-22.5 -71.5t-55.5 -55.5t-109 -23q-8 0 -21.5 1.5t-15.5 1.5l-25 24v313 q0 4 6.5 29t10.5 35q2 2 4 5t4 3h393q18 0 32.5 -14.5t24.5 -26.5q6 -6 14.5 -18.5t16.5 -23.5t15 -20l6 -9v-242q0 -35 28.5 -57.5t59.5 -22.5q35 0 59.5 21.5t24.5 58.5v475q0 27 -21.5 51.5t-50.5 24.5h-539q-23 14 -55.5 13t-56.5 -1q-39 0 -70 -1t-55.5 -10t-41 -30.5 t-24.5 -62.5h-8q-66 70 -149.5 103.5t-176.5 33.5q-61 0 -126.5 -15.5t-118.5 -50.5l-20.5 -20.5t-32 -30.5t-32 -31.5t-20.5 -21.5q-2 -2 -8 -11.5t-6 -13.5q-4 -4 -16.5 -19.5t-16.5 -19.5q-4 -10 -15.5 -32.5t-22.5 -48t-21.5 -49t-12.5 -31.5q-2 -4 -6 -18.5t-10 -32 t-10 -33t-6 -19.5l-4.5 -9t-4.5 -7v-555zM164 743q0 70 13 153t42 162t75 143.5t112 101.5q6 4 20 10t20 6h152q4 0 17.5 -6t30 -13.5t32.5 -15.5t24 -14q49 -33 86 -92.5t60.5 -128t35 -139t11.5 -126.5q0 -90 -18.5 -177t-45.5 -173q-20 -59 -56 -92t-89 -68 q-20 -14 -35.5 -24t-30 -17.5t-32 -11.5t-41.5 -4q-29 0 -73 3t-68 13q-2 2 -9.5 8.5t-15.5 12.5t-14.5 12t-8.5 8q-51 39 -88 94.5t-60.5 117t-34.5 128t-11 129.5z" />
<glyph unicode="&#x2000;" horiz-adv-x="1026" />
<glyph unicode="&#x2001;" horiz-adv-x="2052" />
<glyph unicode="&#x2002;" horiz-adv-x="1026" />
<glyph unicode="&#x2003;" horiz-adv-x="2052" />
<glyph unicode="&#x2004;" horiz-adv-x="684" />
<glyph unicode="&#x2005;" horiz-adv-x="513" />
<glyph unicode="&#x2006;" horiz-adv-x="342" />
<glyph unicode="&#x2007;" horiz-adv-x="342" />
<glyph unicode="&#x2008;" horiz-adv-x="256" />
<glyph unicode="&#x2009;" horiz-adv-x="410" />
<glyph unicode="&#x200a;" horiz-adv-x="114" />
<glyph unicode="&#x2013;" horiz-adv-x="829" d="M20 778q0 -47 37 -79.5t84 -32.5h265l38 12h281q39 0 60.5 37t21.5 69q0 23 -11.5 37.5t-27.5 22.5t-36.5 13t-39.5 9q-78 2 -156.5 9.5t-156.5 7.5h-31q-16 0 -31 -9q-10 0 -36.5 -1t-36.5 -1q-31 0 -58.5 5.5t-56.5 5.5q-43 0 -76 -32t-33 -73z" />
<glyph unicode="&#x202f;" horiz-adv-x="410" />
<glyph unicode="&#x205f;" horiz-adv-x="513" />
<glyph unicode="&#xe000;" horiz-adv-x="1095" d="M0 0v1096h1096v-1096h-1096z" />
</font>
</defs>
</svg>
